<svg xmlns="http://www.w3.org/2000/svg" xmlns:xlink="http://www.w3.org/1999/xlink" width="432" zoomAndPan="magnify" viewBox="0 0 324 430.499987" height="574" preserveAspectRatio="xMidYMid meet" version="1.0"><defs><clipPath id="9b1558bf2c"><path d="M 0.226562 0 L 323.769531 0 L 323.769531 429.25 L 0.226562 429.25 Z M 0.226562 0 " clip-rule="nonzero"/></clipPath></defs><g clip-path="url(#9b1558bf2c)"><path fill="#531412" d="M 64.542969 0.476562 C 64.542969 0.410156 64.597656 0.355469 64.660156 0.355469 C 64.726562 0.355469 64.78125 0.410156 64.78125 0.476562 C 64.78125 0.542969 64.726562 0.59375 64.660156 0.59375 C 64.597656 0.59375 64.542969 0.542969 64.542969 0.476562 Z M 86.101562 0.949219 C 86.363281 0.949219 86.578125 0.738281 86.578125 0.476562 C 86.578125 0.214844 86.363281 0 86.101562 0 C 85.839844 0 85.625 0.214844 85.625 0.476562 C 85.625 0.738281 85.839844 0.949219 86.101562 0.949219 Z M 107.539062 0.949219 C 107.800781 0.949219 108.015625 0.738281 108.015625 0.476562 C 108.015625 0.214844 107.800781 0 107.539062 0 C 107.277344 0 107.0625 0.214844 107.0625 0.476562 C 107.0625 0.738281 107.277344 0.949219 107.539062 0.949219 Z M 128.976562 0.832031 C 129.175781 0.832031 129.335938 0.671875 129.335938 0.476562 C 129.335938 0.277344 129.175781 0.117188 128.976562 0.117188 C 128.78125 0.117188 128.621094 0.277344 128.621094 0.476562 C 128.621094 0.671875 128.78125 0.832031 128.976562 0.832031 Z M 150.417969 0.652344 C 150.515625 0.652344 150.59375 0.574219 150.59375 0.476562 C 150.59375 0.378906 150.515625 0.296875 150.417969 0.296875 C 150.316406 0.296875 150.238281 0.378906 150.238281 0.476562 C 150.238281 0.574219 150.316406 0.652344 150.417969 0.652344 Z M 64.660156 22.925781 C 65.21875 22.925781 65.671875 22.472656 65.671875 21.914062 C 65.671875 21.355469 65.21875 20.902344 64.660156 20.902344 C 64.105469 20.902344 63.652344 21.355469 63.652344 21.914062 C 63.652344 22.472656 64.105469 22.925781 64.660156 22.925781 Z M 86.101562 23.996094 C 87.25 23.996094 88.179688 23.0625 88.179688 21.914062 C 88.179688 20.765625 87.25 19.832031 86.101562 19.832031 C 84.953125 19.832031 84.019531 20.765625 84.019531 21.914062 C 84.019531 23.0625 84.953125 23.996094 86.101562 23.996094 Z M 107.539062 24.648438 C 109.050781 24.648438 110.273438 23.425781 110.273438 21.914062 C 110.273438 20.402344 109.050781 19.179688 107.539062 19.179688 C 106.027344 19.179688 104.804688 20.402344 104.804688 21.914062 C 104.804688 23.425781 106.027344 24.648438 107.539062 24.648438 Z M 128.976562 24.707031 C 130.519531 24.707031 131.773438 23.457031 131.773438 21.914062 C 131.773438 20.371094 130.519531 19.121094 128.976562 19.121094 C 127.433594 19.121094 126.183594 20.371094 126.183594 21.914062 C 126.183594 23.457031 127.433594 24.707031 128.976562 24.707031 Z M 150.417969 23.9375 C 151.53125 23.9375 152.4375 23.03125 152.4375 21.914062 C 152.4375 20.796875 151.53125 19.894531 150.417969 19.894531 C 149.300781 19.894531 148.394531 20.796875 148.394531 21.914062 C 148.394531 23.03125 149.300781 23.9375 150.417969 23.9375 Z M 171.855469 23.042969 C 172.480469 23.042969 172.984375 22.539062 172.984375 21.914062 C 172.984375 21.289062 172.480469 20.785156 171.855469 20.785156 C 171.230469 20.785156 170.726562 21.289062 170.726562 21.914062 C 170.726562 22.539062 171.230469 23.042969 171.855469 23.042969 Z M 193.292969 22.332031 C 193.523438 22.332031 193.710938 22.144531 193.710938 21.914062 C 193.710938 21.683594 193.523438 21.496094 193.292969 21.496094 C 193.0625 21.496094 192.878906 21.683594 192.878906 21.914062 C 192.878906 22.144531 193.0625 22.332031 193.292969 22.332031 Z M 214.734375 21.972656 C 214.765625 21.972656 214.792969 21.949219 214.792969 21.914062 C 214.792969 21.882812 214.765625 21.855469 214.734375 21.855469 C 214.699219 21.855469 214.671875 21.882812 214.671875 21.914062 C 214.671875 21.949219 214.699219 21.972656 214.734375 21.972656 Z M 128.976562 43.769531 C 129.207031 43.769531 129.394531 43.582031 129.394531 43.351562 C 129.394531 43.121094 129.207031 42.9375 128.976562 42.9375 C 128.75 42.9375 128.5625 43.121094 128.5625 43.351562 C 128.5625 43.582031 128.75 43.769531 128.976562 43.769531 Z M 150.417969 44.71875 C 151.171875 44.71875 151.785156 44.109375 151.785156 43.351562 C 151.785156 42.597656 151.171875 41.984375 150.417969 41.984375 C 149.660156 41.984375 149.050781 42.597656 149.050781 43.351562 C 149.050781 44.109375 149.660156 44.71875 150.417969 44.71875 Z M 171.855469 44.660156 C 172.578125 44.660156 173.164062 44.074219 173.164062 43.351562 C 173.164062 42.628906 172.578125 42.046875 171.855469 42.046875 C 171.132812 42.046875 170.546875 42.628906 170.546875 43.351562 C 170.546875 44.074219 171.132812 44.660156 171.855469 44.660156 Z M 193.292969 44.183594 C 193.753906 44.183594 194.125 43.8125 194.125 43.351562 C 194.125 42.894531 193.753906 42.519531 193.292969 42.519531 C 192.835938 42.519531 192.460938 42.894531 192.460938 43.351562 C 192.460938 43.8125 192.835938 44.183594 193.292969 44.183594 Z M 214.734375 43.769531 C 214.960938 43.769531 215.148438 43.582031 215.148438 43.351562 C 215.148438 43.121094 214.960938 42.9375 214.734375 42.9375 C 214.503906 42.9375 214.316406 43.121094 214.316406 43.351562 C 214.316406 43.582031 214.503906 43.769531 214.734375 43.769531 Z M 236.171875 43.414062 C 236.203125 43.414062 236.230469 43.386719 236.230469 43.351562 C 236.230469 43.320312 236.203125 43.292969 236.171875 43.292969 C 236.136719 43.292969 236.113281 43.320312 236.113281 43.351562 C 236.113281 43.386719 236.136719 43.414062 236.171875 43.414062 Z M 171.855469 65.445312 C 172.214844 65.445312 172.507812 65.152344 172.507812 64.792969 C 172.507812 64.429688 172.214844 64.136719 171.855469 64.136719 C 171.496094 64.136719 171.203125 64.429688 171.203125 64.792969 C 171.203125 65.152344 171.496094 65.445312 171.855469 65.445312 Z M 193.292969 65.5625 C 193.722656 65.5625 194.066406 65.21875 194.066406 64.792969 C 194.066406 64.363281 193.722656 64.019531 193.292969 64.019531 C 192.867188 64.019531 192.523438 64.363281 192.523438 64.792969 C 192.523438 65.21875 192.867188 65.5625 193.292969 65.5625 Z M 214.734375 65.207031 C 214.960938 65.207031 215.148438 65.019531 215.148438 64.792969 C 215.148438 64.5625 214.960938 64.375 214.734375 64.375 C 214.503906 64.375 214.316406 64.5625 214.316406 64.792969 C 214.316406 65.019531 214.503906 65.207031 214.734375 65.207031 Z M 236.171875 64.96875 C 236.269531 64.96875 236.351562 64.890625 236.351562 64.792969 C 236.351562 64.691406 236.269531 64.613281 236.171875 64.613281 C 236.074219 64.613281 235.992188 64.691406 235.992188 64.792969 C 235.992188 64.890625 236.074219 64.96875 236.171875 64.96875 Z M 193.292969 86.765625 C 193.589844 86.765625 193.828125 86.527344 193.828125 86.230469 C 193.828125 85.933594 193.589844 85.695312 193.292969 85.695312 C 193 85.695312 192.757812 85.933594 192.757812 86.230469 C 192.757812 86.527344 193 86.765625 193.292969 86.765625 Z M 214.734375 86.707031 C 214.996094 86.707031 215.207031 86.492188 215.207031 86.230469 C 215.207031 85.96875 214.996094 85.753906 214.734375 85.753906 C 214.46875 85.753906 214.257812 85.96875 214.257812 86.230469 C 214.257812 86.492188 214.46875 86.707031 214.734375 86.707031 Z M 236.171875 86.46875 C 236.304688 86.46875 236.410156 86.359375 236.410156 86.230469 C 236.410156 86.097656 236.304688 85.992188 236.171875 85.992188 C 236.039062 85.992188 235.933594 86.097656 235.933594 86.230469 C 235.933594 86.359375 236.039062 86.46875 236.171875 86.46875 Z M 257.609375 86.347656 C 257.675781 86.347656 257.730469 86.296875 257.730469 86.230469 C 257.730469 86.164062 257.675781 86.109375 257.609375 86.109375 C 257.542969 86.109375 257.492188 86.164062 257.492188 86.230469 C 257.492188 86.296875 257.542969 86.347656 257.609375 86.347656 Z M 279.050781 86.289062 C 279.082031 86.289062 279.109375 86.261719 279.109375 86.230469 C 279.109375 86.195312 279.082031 86.171875 279.050781 86.171875 C 279.015625 86.171875 278.988281 86.195312 278.988281 86.230469 C 278.988281 86.261719 279.015625 86.289062 279.050781 86.289062 Z M 193.292969 107.726562 C 193.328125 107.726562 193.355469 107.703125 193.355469 107.667969 C 193.355469 107.636719 193.328125 107.609375 193.292969 107.609375 C 193.261719 107.609375 193.234375 107.636719 193.234375 107.667969 C 193.234375 107.703125 193.261719 107.726562 193.292969 107.726562 Z M 214.734375 108.324219 C 215.09375 108.324219 215.386719 108.03125 215.386719 107.667969 C 215.386719 107.308594 215.09375 107.015625 214.734375 107.015625 C 214.371094 107.015625 214.078125 107.308594 214.078125 107.667969 C 214.078125 108.03125 214.371094 108.324219 214.734375 108.324219 Z M 236.171875 108.144531 C 236.433594 108.144531 236.648438 107.929688 236.648438 107.667969 C 236.648438 107.40625 236.433594 107.191406 236.171875 107.191406 C 235.910156 107.191406 235.695312 107.40625 235.695312 107.667969 C 235.695312 107.929688 235.910156 108.144531 236.171875 108.144531 Z M 257.609375 108.027344 C 257.808594 108.027344 257.96875 107.867188 257.96875 107.667969 C 257.96875 107.472656 257.808594 107.3125 257.609375 107.3125 C 257.414062 107.3125 257.253906 107.472656 257.253906 107.667969 C 257.253906 107.867188 257.414062 108.027344 257.609375 108.027344 Z M 279.050781 107.964844 C 279.214844 107.964844 279.347656 107.832031 279.347656 107.667969 C 279.347656 107.503906 279.214844 107.371094 279.050781 107.371094 C 278.886719 107.371094 278.75 107.503906 278.75 107.667969 C 278.75 107.832031 278.886719 107.964844 279.050781 107.964844 Z M 300.488281 107.726562 C 300.519531 107.726562 300.546875 107.703125 300.546875 107.667969 C 300.546875 107.636719 300.519531 107.609375 300.488281 107.609375 C 300.457031 107.609375 300.429688 107.636719 300.429688 107.667969 C 300.429688 107.703125 300.457031 107.726562 300.488281 107.726562 Z M 214.734375 129.640625 C 215.027344 129.640625 215.269531 129.402344 215.269531 129.105469 C 215.269531 128.8125 215.027344 128.570312 214.734375 128.570312 C 214.4375 128.570312 214.199219 128.8125 214.199219 129.105469 C 214.199219 129.402344 214.4375 129.640625 214.734375 129.640625 Z M 236.171875 129.9375 C 236.632812 129.9375 237.003906 129.566406 237.003906 129.105469 C 237.003906 128.648438 236.632812 128.273438 236.171875 128.273438 C 235.710938 128.273438 235.339844 128.648438 235.339844 129.105469 C 235.339844 129.566406 235.710938 129.9375 236.171875 129.9375 Z M 257.609375 129.761719 C 257.972656 129.761719 258.265625 129.46875 258.265625 129.105469 C 258.265625 128.746094 257.972656 128.453125 257.609375 128.453125 C 257.25 128.453125 256.957031 128.746094 256.957031 129.105469 C 256.957031 129.46875 257.25 129.761719 257.609375 129.761719 Z M 279.050781 129.761719 C 279.410156 129.761719 279.703125 129.46875 279.703125 129.105469 C 279.703125 128.746094 279.410156 128.453125 279.050781 128.453125 C 278.6875 128.453125 278.394531 128.746094 278.394531 129.105469 C 278.394531 129.46875 278.6875 129.761719 279.050781 129.761719 Z M 300.488281 129.582031 C 300.75 129.582031 300.964844 129.371094 300.964844 129.105469 C 300.964844 128.84375 300.75 128.632812 300.488281 128.632812 C 300.226562 128.632812 300.011719 128.84375 300.011719 129.105469 C 300.011719 129.371094 300.226562 129.582031 300.488281 129.582031 Z M 214.734375 150.84375 C 214.898438 150.84375 215.03125 150.710938 215.03125 150.546875 C 215.03125 150.382812 214.898438 150.25 214.734375 150.25 C 214.570312 150.25 214.4375 150.382812 214.4375 150.546875 C 214.4375 150.710938 214.570312 150.84375 214.734375 150.84375 Z M 236.171875 151.855469 C 236.894531 151.855469 237.480469 151.269531 237.480469 150.546875 C 237.480469 149.824219 236.894531 149.238281 236.171875 149.238281 C 235.449219 149.238281 234.863281 149.824219 234.863281 150.546875 C 234.863281 151.269531 235.449219 151.855469 236.171875 151.855469 Z M 257.609375 151.734375 C 258.265625 151.734375 258.800781 151.203125 258.800781 150.546875 C 258.800781 149.890625 258.265625 149.355469 257.609375 149.355469 C 256.953125 149.355469 256.421875 149.890625 256.421875 150.546875 C 256.421875 151.203125 256.953125 151.734375 257.609375 151.734375 Z M 279.050781 151.734375 C 279.707031 151.734375 280.238281 151.203125 280.238281 150.546875 C 280.238281 149.890625 279.707031 149.355469 279.050781 149.355469 C 278.390625 149.355469 277.859375 149.890625 277.859375 150.546875 C 277.859375 151.203125 278.390625 151.734375 279.050781 151.734375 Z M 300.488281 151.734375 C 301.144531 151.734375 301.675781 151.203125 301.675781 150.546875 C 301.675781 149.890625 301.144531 149.355469 300.488281 149.355469 C 299.828125 149.355469 299.300781 149.890625 299.300781 150.546875 C 299.300781 151.203125 299.828125 151.734375 300.488281 151.734375 Z M 321.925781 150.605469 C 321.960938 150.605469 321.984375 150.578125 321.984375 150.546875 C 321.984375 150.511719 321.960938 150.484375 321.925781 150.484375 C 321.894531 150.484375 321.867188 150.511719 321.867188 150.546875 C 321.867188 150.578125 321.894531 150.605469 321.925781 150.605469 Z M 214.734375 172.164062 C 214.832031 172.164062 214.910156 172.082031 214.910156 171.984375 C 214.910156 171.886719 214.832031 171.804688 214.734375 171.804688 C 214.632812 171.804688 214.554688 171.886719 214.554688 171.984375 C 214.554688 172.082031 214.632812 172.164062 214.734375 172.164062 Z M 236.171875 173.828125 C 237.1875 173.828125 238.015625 173.003906 238.015625 171.984375 C 238.015625 170.964844 237.1875 170.140625 236.171875 170.140625 C 235.152344 170.140625 234.328125 170.964844 234.328125 171.984375 C 234.328125 173.003906 235.152344 173.828125 236.171875 173.828125 Z M 257.609375 173.769531 C 258.59375 173.769531 259.394531 172.96875 259.394531 171.984375 C 259.394531 171 258.59375 170.199219 257.609375 170.199219 C 256.625 170.199219 255.828125 171 255.828125 171.984375 C 255.828125 172.96875 256.625 173.769531 257.609375 173.769531 Z M 279.050781 173.769531 C 280.035156 173.769531 280.832031 172.96875 280.832031 171.984375 C 280.832031 171 280.035156 170.199219 279.050781 170.199219 C 278.0625 170.199219 277.265625 171 277.265625 171.984375 C 277.265625 172.96875 278.0625 173.769531 279.050781 173.769531 Z M 300.488281 173.886719 C 301.539062 173.886719 302.390625 173.035156 302.390625 171.984375 C 302.390625 170.933594 301.539062 170.082031 300.488281 170.082031 C 299.4375 170.082031 298.585938 170.933594 298.585938 171.984375 C 298.585938 173.035156 299.4375 173.886719 300.488281 173.886719 Z M 321.925781 172.460938 C 322.1875 172.460938 322.402344 172.246094 322.402344 171.984375 C 322.402344 171.722656 322.1875 171.507812 321.925781 171.507812 C 321.664062 171.507812 321.449219 171.722656 321.449219 171.984375 C 321.449219 172.246094 321.664062 172.460938 321.925781 172.460938 Z M 214.734375 193.601562 C 214.832031 193.601562 214.910156 193.519531 214.910156 193.421875 C 214.910156 193.324219 214.832031 193.246094 214.734375 193.246094 C 214.632812 193.246094 214.554688 193.324219 214.554688 193.421875 C 214.554688 193.519531 214.632812 193.601562 214.734375 193.601562 Z M 236.171875 195.917969 C 237.550781 195.917969 238.667969 194.800781 238.667969 193.421875 C 238.667969 192.042969 237.550781 190.925781 236.171875 190.925781 C 234.792969 190.925781 233.675781 192.042969 233.675781 193.421875 C 233.675781 194.800781 234.792969 195.917969 236.171875 195.917969 Z M 257.609375 195.917969 C 258.988281 195.917969 260.105469 194.800781 260.105469 193.421875 C 260.105469 192.042969 258.988281 190.925781 257.609375 190.925781 C 256.230469 190.925781 255.113281 192.042969 255.113281 193.421875 C 255.113281 194.800781 256.230469 195.917969 257.609375 195.917969 Z M 279.050781 195.917969 C 280.429688 195.917969 281.546875 194.800781 281.546875 193.421875 C 281.546875 192.042969 280.429688 190.925781 279.050781 190.925781 C 277.671875 190.925781 276.550781 192.042969 276.550781 193.421875 C 276.550781 194.800781 277.671875 195.917969 279.050781 195.917969 Z M 300.488281 196.039062 C 301.933594 196.039062 303.101562 194.867188 303.101562 193.421875 C 303.101562 191.976562 301.933594 190.808594 300.488281 190.808594 C 299.042969 190.808594 297.871094 191.976562 297.871094 193.421875 C 297.871094 194.867188 299.042969 196.039062 300.488281 196.039062 Z M 321.925781 194.492188 C 322.515625 194.492188 322.996094 194.011719 322.996094 193.421875 C 322.996094 192.832031 322.515625 192.351562 321.925781 192.351562 C 321.335938 192.351562 320.859375 192.832031 320.859375 193.421875 C 320.859375 194.011719 321.335938 194.492188 321.925781 194.492188 Z M 214.734375 215.277344 C 214.960938 215.277344 215.148438 215.089844 215.148438 214.859375 C 215.148438 214.632812 214.960938 214.445312 214.734375 214.445312 C 214.503906 214.445312 214.316406 214.632812 214.316406 214.859375 C 214.316406 215.089844 214.503906 215.277344 214.734375 215.277344 Z M 236.171875 218.25 C 238.042969 218.25 239.558594 216.734375 239.558594 214.863281 C 239.558594 212.988281 238.042969 211.472656 236.171875 211.472656 C 234.300781 211.472656 232.78125 212.988281 232.78125 214.863281 C 232.78125 216.734375 234.300781 218.25 236.171875 218.25 Z M 257.609375 218.25 C 259.480469 218.25 261 216.734375 261 214.863281 C 261 212.988281 259.480469 211.472656 257.609375 211.472656 C 255.738281 211.472656 254.222656 212.988281 254.222656 214.863281 C 254.222656 216.734375 255.738281 218.25 257.609375 218.25 Z M 279.050781 218.25 C 280.921875 218.25 282.4375 216.734375 282.4375 214.863281 C 282.4375 212.988281 280.921875 211.472656 279.050781 211.472656 C 277.175781 211.472656 275.660156 212.988281 275.660156 214.863281 C 275.660156 216.734375 277.175781 218.25 279.050781 218.25 Z M 300.488281 218.367188 C 302.421875 218.367188 303.996094 216.796875 303.996094 214.859375 C 303.996094 212.925781 302.421875 211.355469 300.488281 211.355469 C 298.550781 211.355469 296.980469 212.925781 296.980469 214.859375 C 296.980469 216.796875 298.550781 218.367188 300.488281 218.367188 Z M 321.925781 216.347656 C 322.75 216.347656 323.414062 215.683594 323.414062 214.863281 C 323.414062 214.039062 322.75 213.375 321.925781 213.375 C 321.105469 213.375 320.441406 214.039062 320.441406 214.863281 C 320.441406 215.683594 321.105469 216.347656 321.925781 216.347656 Z M 214.734375 237.726562 C 215.519531 237.726562 216.160156 237.089844 216.160156 236.300781 C 216.160156 235.511719 215.519531 234.875 214.734375 234.875 C 213.945312 234.875 213.304688 235.511719 213.304688 236.300781 C 213.304688 237.089844 213.945312 237.726562 214.734375 237.726562 Z M 236.171875 240.816406 C 238.667969 240.816406 240.691406 238.796875 240.691406 236.300781 C 240.691406 233.804688 238.667969 231.78125 236.171875 231.78125 C 233.675781 231.78125 231.652344 233.804688 231.652344 236.300781 C 231.652344 238.796875 233.675781 240.816406 236.171875 240.816406 Z M 257.609375 240.699219 C 260.039062 240.699219 262.007812 238.730469 262.007812 236.300781 C 262.007812 233.871094 260.039062 231.902344 257.609375 231.902344 C 255.179688 231.902344 253.210938 233.871094 253.210938 236.300781 C 253.210938 238.730469 255.179688 240.699219 257.609375 240.699219 Z M 279.050781 240.699219 C 281.480469 240.699219 283.449219 238.730469 283.449219 236.300781 C 283.449219 233.871094 281.476562 231.902344 279.050781 231.902344 C 276.621094 231.902344 274.648438 233.871094 274.648438 236.300781 C 274.648438 238.730469 276.621094 240.699219 279.050781 240.699219 Z M 300.488281 240.878906 C 303.015625 240.878906 305.066406 238.828125 305.066406 236.300781 C 305.066406 233.773438 303.015625 231.722656 300.488281 231.722656 C 297.960938 231.722656 295.910156 233.773438 295.910156 236.300781 C 295.910156 238.828125 297.960938 240.878906 300.488281 240.878906 Z M 321.925781 238.144531 C 322.945312 238.144531 323.769531 237.316406 323.769531 236.300781 C 323.769531 235.28125 322.945312 234.457031 321.925781 234.457031 C 320.910156 234.457031 320.082031 235.28125 320.082031 236.300781 C 320.082031 237.316406 320.910156 238.144531 321.925781 238.144531 Z M 214.734375 261.664062 C 216.898438 261.664062 218.65625 259.90625 218.65625 257.738281 C 218.65625 255.570312 216.898438 253.816406 214.734375 253.816406 C 212.566406 253.816406 210.808594 255.570312 210.808594 257.738281 C 210.808594 259.90625 212.566406 261.664062 214.734375 261.664062 Z M 236.171875 263.503906 C 239.355469 263.503906 241.9375 260.921875 241.9375 257.738281 C 241.9375 254.554688 239.355469 251.972656 236.171875 251.972656 C 232.988281 251.972656 230.40625 254.554688 230.40625 257.738281 C 230.40625 260.921875 232.988281 263.503906 236.171875 263.503906 Z M 257.609375 263.328125 C 260.695312 263.328125 263.199219 260.824219 263.199219 257.738281 C 263.199219 254.652344 260.695312 252.152344 257.609375 252.152344 C 254.523438 252.152344 252.023438 254.652344 252.023438 257.738281 C 252.023438 260.824219 254.523438 263.328125 257.609375 263.328125 Z M 279.050781 263.328125 C 282.136719 263.328125 284.636719 260.824219 284.636719 257.738281 C 284.636719 254.652344 282.136719 252.152344 279.050781 252.152344 C 275.960938 252.152344 273.460938 254.652344 273.460938 257.738281 C 273.460938 260.824219 275.960938 263.328125 279.050781 263.328125 Z M 300.488281 263.503906 C 303.671875 263.503906 306.253906 260.921875 306.253906 257.738281 C 306.253906 254.554688 303.671875 251.972656 300.488281 251.972656 C 297.304688 251.972656 294.722656 254.554688 294.722656 257.738281 C 294.722656 260.921875 297.304688 263.503906 300.488281 263.503906 Z M 321.925781 259.105469 C 322.683594 259.105469 323.292969 258.492188 323.292969 257.738281 C 323.292969 256.984375 322.683594 256.371094 321.925781 256.371094 C 321.171875 256.371094 320.558594 256.984375 320.558594 257.738281 C 320.558594 258.492188 321.171875 259.105469 321.925781 259.105469 Z M 193.292969 280.722656 C 194.148438 280.722656 194.839844 280.03125 194.839844 279.175781 C 194.839844 278.324219 194.148438 277.632812 193.292969 277.632812 C 192.441406 277.632812 191.75 278.324219 191.75 279.175781 C 191.75 280.03125 192.441406 280.722656 193.292969 280.722656 Z M 214.734375 286.371094 C 218.707031 286.371094 221.925781 283.152344 221.925781 279.175781 C 221.925781 275.203125 218.707031 271.984375 214.734375 271.984375 C 210.761719 271.984375 207.539062 275.203125 207.539062 279.175781 C 207.539062 283.152344 210.761719 286.371094 214.734375 286.371094 Z M 236.171875 286.3125 C 240.113281 286.3125 243.304688 283.117188 243.304688 279.175781 C 243.304688 275.238281 240.109375 272.042969 236.171875 272.042969 C 232.230469 272.042969 229.039062 275.238281 229.039062 279.175781 C 229.039062 283.117188 232.230469 286.3125 236.171875 286.3125 Z M 257.609375 286.132812 C 261.453125 286.132812 264.566406 283.019531 264.566406 279.175781 C 264.566406 275.335938 261.453125 272.222656 257.609375 272.222656 C 253.769531 272.222656 250.65625 275.335938 250.65625 279.175781 C 250.65625 283.019531 253.769531 286.132812 257.609375 286.132812 Z M 279.050781 286.132812 C 282.890625 286.132812 286.003906 283.019531 286.003906 279.175781 C 286.003906 275.335938 282.890625 272.222656 279.050781 272.222656 C 275.207031 272.222656 272.09375 275.335938 272.09375 279.175781 C 272.09375 283.019531 275.207031 286.132812 279.050781 286.132812 Z M 300.488281 285.65625 C 304.066406 285.65625 306.96875 282.757812 306.96875 279.175781 C 306.96875 275.597656 304.066406 272.699219 300.488281 272.699219 C 296.910156 272.699219 294.007812 275.597656 294.007812 279.175781 C 294.007812 282.757812 296.910156 285.65625 300.488281 285.65625 Z M 321.925781 279.535156 C 322.125 279.535156 322.285156 279.375 322.285156 279.175781 C 322.285156 278.980469 322.125 278.820312 321.925781 278.820312 C 321.730469 278.820312 321.570312 278.980469 321.570312 279.175781 C 321.570312 279.375 321.730469 279.535156 321.925781 279.535156 Z M 171.855469 301.089844 C 172.117188 301.089844 172.332031 300.878906 172.332031 300.613281 C 172.332031 300.351562 172.117188 300.140625 171.855469 300.140625 C 171.59375 300.140625 171.378906 300.351562 171.378906 300.613281 C 171.378906 300.878906 171.59375 301.089844 171.855469 301.089844 Z M 193.292969 306.621094 C 196.609375 306.621094 199.296875 303.933594 199.296875 300.613281 C 199.296875 297.300781 196.609375 294.613281 193.292969 294.613281 C 189.976562 294.613281 187.289062 297.300781 187.289062 300.613281 C 187.289062 303.933594 189.976562 306.621094 193.292969 306.621094 Z M 214.734375 308.523438 C 219.097656 308.523438 222.640625 304.984375 222.640625 300.613281 C 222.640625 296.25 219.097656 292.710938 214.734375 292.710938 C 210.367188 292.710938 206.828125 296.25 206.828125 300.613281 C 206.828125 304.984375 210.367188 308.523438 214.734375 308.523438 Z M 236.171875 308.644531 C 240.605469 308.644531 244.195312 305.050781 244.195312 300.613281 C 244.195312 296.183594 240.605469 292.589844 236.171875 292.589844 C 231.738281 292.589844 228.144531 296.183594 228.144531 300.613281 C 228.144531 305.050781 231.738281 308.644531 236.171875 308.644531 Z M 257.609375 308.703125 C 262.074219 308.703125 265.695312 305.082031 265.695312 300.613281 C 265.695312 296.152344 262.074219 292.53125 257.609375 292.53125 C 253.144531 292.53125 249.523438 296.152344 249.523438 300.613281 C 249.523438 305.082031 253.144531 308.703125 257.609375 308.703125 Z M 279.050781 308.703125 C 283.515625 308.703125 287.132812 305.082031 287.132812 300.613281 C 287.132812 296.152344 283.515625 292.53125 279.050781 292.53125 C 274.582031 292.53125 270.964844 296.152344 270.964844 300.613281 C 270.964844 305.082031 274.582031 308.703125 279.050781 308.703125 Z M 300.488281 305.375 C 303.113281 305.375 305.242188 303.242188 305.242188 300.613281 C 305.242188 297.988281 303.113281 295.859375 300.488281 295.859375 C 297.859375 295.859375 295.730469 297.988281 295.730469 300.613281 C 295.730469 303.242188 297.859375 305.375 300.488281 305.375 Z M 150.417969 322.472656 C 150.648438 322.472656 150.832031 322.285156 150.832031 322.054688 C 150.832031 321.824219 150.648438 321.636719 150.417969 321.636719 C 150.1875 321.636719 150 321.824219 150 322.054688 C 150 322.285156 150.1875 322.472656 150.417969 322.472656 Z M 171.855469 326.039062 C 174.054688 326.039062 175.839844 324.253906 175.839844 322.054688 C 175.839844 319.855469 174.054688 318.074219 171.855469 318.074219 C 169.65625 318.074219 167.871094 319.855469 167.871094 322.054688 C 167.871094 324.253906 169.65625 326.039062 171.855469 326.039062 Z M 193.292969 327.820312 C 196.480469 327.820312 199.0625 325.238281 199.0625 322.054688 C 199.0625 318.871094 196.480469 316.289062 193.292969 316.289062 C 190.109375 316.289062 187.527344 318.871094 187.527344 322.054688 C 187.527344 325.238281 190.109375 327.820312 193.292969 327.820312 Z M 214.734375 328.238281 C 218.148438 328.238281 220.914062 325.46875 220.914062 322.054688 C 220.914062 318.640625 218.148438 315.871094 214.734375 315.871094 C 211.316406 315.871094 208.550781 318.640625 208.550781 322.054688 C 208.550781 325.46875 211.316406 328.238281 214.734375 328.238281 Z M 236.171875 328.476562 C 239.71875 328.476562 242.59375 325.601562 242.59375 322.054688 C 242.59375 318.507812 239.71875 315.632812 236.171875 315.632812 C 232.625 315.632812 229.75 318.507812 229.75 322.054688 C 229.75 325.601562 232.625 328.476562 236.171875 328.476562 Z M 257.609375 328.65625 C 261.253906 328.65625 264.210938 325.699219 264.210938 322.054688 C 264.210938 318.410156 261.253906 315.457031 257.609375 315.457031 C 253.964844 315.457031 251.011719 318.410156 251.011719 322.054688 C 251.011719 325.699219 253.964844 328.65625 257.609375 328.65625 Z M 279.050781 328.238281 C 282.464844 328.238281 285.230469 325.46875 285.230469 322.054688 C 285.230469 318.640625 282.464844 315.871094 279.050781 315.871094 C 275.632812 315.871094 272.867188 318.640625 272.867188 322.054688 C 272.867188 325.46875 275.632812 328.238281 279.050781 328.238281 Z M 300.488281 322.945312 C 300.980469 322.945312 301.378906 322.546875 301.378906 322.054688 C 301.378906 321.5625 300.980469 321.164062 300.488281 321.164062 C 299.992188 321.164062 299.59375 321.5625 299.59375 322.054688 C 299.59375 322.546875 299.992188 322.945312 300.488281 322.945312 Z M 107.539062 343.613281 C 107.605469 343.613281 107.660156 343.558594 107.660156 343.492188 C 107.660156 343.425781 107.605469 343.375 107.539062 343.375 C 107.472656 343.375 107.421875 343.425781 107.421875 343.492188 C 107.421875 343.558594 107.472656 343.613281 107.539062 343.613281 Z M 128.976562 344.625 C 129.601562 344.625 130.109375 344.117188 130.109375 343.492188 C 130.109375 342.871094 129.601562 342.363281 128.976562 342.363281 C 128.355469 342.363281 127.847656 342.871094 127.847656 343.492188 C 127.847656 344.117188 128.355469 344.625 128.976562 344.625 Z M 150.417969 346.527344 C 152.089844 346.527344 153.449219 345.167969 153.449219 343.492188 C 153.449219 341.820312 152.089844 340.460938 150.417969 340.460938 C 148.742188 340.460938 147.386719 341.820312 147.386719 343.492188 C 147.386719 345.167969 148.742188 346.527344 150.417969 346.527344 Z M 171.855469 347.359375 C 173.988281 347.359375 175.71875 345.628906 175.71875 343.492188 C 175.71875 341.359375 173.988281 339.628906 171.855469 339.628906 C 169.722656 339.628906 167.992188 341.359375 167.992188 343.492188 C 167.992188 345.628906 169.722656 347.359375 171.855469 347.359375 Z M 193.292969 347.773438 C 195.65625 347.773438 197.574219 345.855469 197.574219 343.492188 C 197.574219 341.132812 195.65625 339.214844 193.292969 339.214844 C 190.929688 339.214844 189.015625 341.132812 189.015625 343.492188 C 189.015625 345.855469 190.929688 347.773438 193.292969 347.773438 Z M 214.734375 348.070312 C 217.261719 348.070312 219.308594 346.019531 219.308594 343.492188 C 219.308594 340.964844 217.261719 338.917969 214.734375 338.917969 C 212.203125 338.917969 210.15625 340.964844 210.15625 343.492188 C 210.15625 346.019531 212.203125 348.070312 214.734375 348.070312 Z M 236.171875 348.308594 C 238.832031 348.308594 240.988281 346.15625 240.988281 343.492188 C 240.988281 340.832031 238.832031 338.679688 236.171875 338.679688 C 233.511719 338.679688 231.355469 340.832031 231.355469 343.492188 C 231.355469 346.15625 233.511719 348.308594 236.171875 348.308594 Z M 257.609375 348.371094 C 260.300781 348.371094 262.484375 346.1875 262.484375 343.492188 C 262.484375 340.800781 260.300781 338.617188 257.609375 338.617188 C 254.917969 338.617188 252.734375 340.800781 252.734375 343.492188 C 252.734375 346.1875 254.917969 348.371094 257.609375 348.371094 Z M 279.050781 345.453125 C 280.132812 345.453125 281.011719 344.578125 281.011719 343.492188 C 281.011719 342.410156 280.132812 341.535156 279.050781 341.535156 C 277.964844 341.535156 277.085938 342.410156 277.085938 343.492188 C 277.085938 344.578125 277.964844 345.453125 279.050781 345.453125 Z M 0.347656 365.054688 C 0.410156 365.054688 0.464844 365 0.464844 364.933594 C 0.464844 364.867188 0.410156 364.816406 0.347656 364.816406 C 0.28125 364.816406 0.226562 364.867188 0.226562 364.933594 C 0.226562 365 0.28125 365.054688 0.347656 365.054688 Z M 21.785156 365.113281 C 21.882812 365.113281 21.964844 365.03125 21.964844 364.933594 C 21.964844 364.835938 21.882812 364.753906 21.785156 364.753906 C 21.6875 364.753906 21.605469 364.835938 21.605469 364.933594 C 21.605469 365.03125 21.6875 365.113281 21.785156 365.113281 Z M 43.222656 365.171875 C 43.355469 365.171875 43.460938 365.066406 43.460938 364.933594 C 43.460938 364.804688 43.355469 364.695312 43.222656 364.695312 C 43.09375 364.695312 42.984375 364.804688 42.984375 364.933594 C 42.984375 365.066406 43.09375 365.171875 43.222656 365.171875 Z M 64.660156 365.351562 C 64.890625 365.351562 65.078125 365.164062 65.078125 364.933594 C 65.078125 364.703125 64.890625 364.515625 64.660156 364.515625 C 64.433594 364.515625 64.246094 364.703125 64.246094 364.933594 C 64.246094 365.164062 64.433594 365.351562 64.660156 365.351562 Z M 86.101562 365.765625 C 86.558594 365.765625 86.933594 365.394531 86.933594 364.933594 C 86.933594 364.472656 86.558594 364.101562 86.101562 364.101562 C 85.640625 364.101562 85.269531 364.472656 85.269531 364.933594 C 85.269531 365.394531 85.640625 365.765625 86.101562 365.765625 Z M 107.539062 366.421875 C 108.359375 366.421875 109.027344 365.753906 109.027344 364.933594 C 109.027344 364.113281 108.359375 363.449219 107.539062 363.449219 C 106.71875 363.449219 106.054688 364.113281 106.054688 364.933594 C 106.054688 365.753906 106.71875 366.421875 107.539062 366.421875 Z M 128.976562 366.898438 C 130.0625 366.898438 130.941406 366.019531 130.941406 364.933594 C 130.941406 363.851562 130.0625 362.972656 128.976562 362.972656 C 127.894531 362.972656 127.015625 363.851562 127.015625 364.933594 C 127.015625 366.019531 127.894531 366.898438 128.976562 366.898438 Z M 150.417969 367.308594 C 151.730469 367.308594 152.792969 366.246094 152.792969 364.933594 C 152.792969 363.621094 151.730469 362.554688 150.417969 362.554688 C 149.105469 362.554688 148.039062 363.621094 148.039062 364.933594 C 148.039062 366.246094 149.105469 367.308594 150.417969 367.308594 Z M 171.855469 367.667969 C 173.367188 367.667969 174.589844 366.445312 174.589844 364.933594 C 174.589844 363.425781 173.367188 362.199219 171.855469 362.199219 C 170.34375 362.199219 169.121094 363.425781 169.121094 364.933594 C 169.121094 366.445312 170.34375 367.667969 171.855469 367.667969 Z M 193.292969 367.964844 C 194.96875 367.964844 196.324219 366.609375 196.324219 364.933594 C 196.324219 363.261719 194.96875 361.902344 193.292969 361.902344 C 191.621094 361.902344 190.261719 363.261719 190.261719 364.933594 C 190.261719 366.609375 191.621094 367.964844 193.292969 367.964844 Z M 214.734375 368.203125 C 216.539062 368.203125 218.003906 366.738281 218.003906 364.933594 C 218.003906 363.125 216.539062 361.664062 214.734375 361.664062 C 212.925781 361.664062 211.464844 363.125 211.464844 364.933594 C 211.464844 366.738281 212.925781 368.203125 214.734375 368.203125 Z M 236.171875 368.324219 C 238.042969 368.324219 239.558594 366.804688 239.558594 364.933594 C 239.558594 363.0625 238.042969 361.546875 236.171875 361.546875 C 234.300781 361.546875 232.78125 363.0625 232.78125 364.933594 C 232.78125 366.804688 234.300781 368.324219 236.171875 368.324219 Z M 257.609375 366.660156 C 258.5625 366.660156 259.335938 365.886719 259.335938 364.933594 C 259.335938 363.980469 258.5625 363.210938 257.609375 363.210938 C 256.65625 363.210938 255.886719 363.980469 255.886719 364.933594 C 255.886719 365.886719 256.65625 366.660156 257.609375 366.660156 Z M 21.785156 386.492188 C 21.851562 386.492188 21.902344 386.4375 21.902344 386.371094 C 21.902344 386.308594 21.851562 386.253906 21.785156 386.253906 C 21.71875 386.253906 21.664062 386.308594 21.664062 386.371094 C 21.664062 386.4375 21.71875 386.492188 21.785156 386.492188 Z M 43.222656 386.609375 C 43.355469 386.609375 43.460938 386.503906 43.460938 386.371094 C 43.460938 386.242188 43.355469 386.136719 43.222656 386.136719 C 43.09375 386.136719 42.984375 386.242188 42.984375 386.371094 C 42.984375 386.503906 43.09375 386.609375 43.222656 386.609375 Z M 64.660156 386.789062 C 64.890625 386.789062 65.078125 386.601562 65.078125 386.371094 C 65.078125 386.144531 64.890625 385.957031 64.660156 385.957031 C 64.433594 385.957031 64.246094 386.144531 64.246094 386.371094 C 64.246094 386.601562 64.433594 386.789062 64.660156 386.789062 Z M 86.101562 387.027344 C 86.460938 387.027344 86.753906 386.734375 86.753906 386.371094 C 86.753906 386.011719 86.460938 385.71875 86.101562 385.71875 C 85.738281 385.71875 85.445312 386.011719 85.445312 386.371094 C 85.445312 386.734375 85.738281 387.027344 86.101562 387.027344 Z M 107.539062 387.324219 C 108.066406 387.324219 108.492188 386.898438 108.492188 386.371094 C 108.492188 385.847656 108.066406 385.421875 107.539062 385.421875 C 107.015625 385.421875 106.589844 385.847656 106.589844 386.371094 C 106.589844 386.898438 107.015625 387.324219 107.539062 387.324219 Z M 128.976562 387.621094 C 129.667969 387.621094 130.226562 387.0625 130.226562 386.371094 C 130.226562 385.683594 129.667969 385.125 128.976562 385.125 C 128.289062 385.125 127.730469 385.683594 127.730469 386.371094 C 127.730469 387.0625 128.289062 387.621094 128.976562 387.621094 Z M 150.417969 387.859375 C 151.238281 387.859375 151.902344 387.191406 151.902344 386.371094 C 151.902344 385.550781 151.238281 384.886719 150.417969 384.886719 C 149.597656 384.886719 148.929688 385.550781 148.929688 386.371094 C 148.929688 387.191406 149.597656 387.859375 150.417969 387.859375 Z M 171.855469 388.15625 C 172.839844 388.15625 173.640625 387.359375 173.640625 386.371094 C 173.640625 385.386719 172.839844 384.589844 171.855469 384.589844 C 170.871094 384.589844 170.070312 385.386719 170.070312 386.371094 C 170.070312 387.359375 170.871094 388.15625 171.855469 388.15625 Z M 193.292969 388.335938 C 194.378906 388.335938 195.257812 387.457031 195.257812 386.371094 C 195.257812 385.289062 194.378906 384.410156 193.292969 384.410156 C 192.210938 384.410156 191.332031 385.289062 191.332031 386.371094 C 191.332031 387.457031 192.210938 388.335938 193.292969 388.335938 Z M 214.734375 388.335938 C 215.816406 388.335938 216.695312 387.457031 216.695312 386.371094 C 216.695312 385.289062 215.816406 384.410156 214.734375 384.410156 C 213.648438 384.410156 212.769531 385.289062 212.769531 386.371094 C 212.769531 387.457031 213.648438 388.335938 214.734375 388.335938 Z M 236.171875 387.203125 C 236.632812 387.203125 237.003906 386.832031 237.003906 386.371094 C 237.003906 385.910156 236.632812 385.539062 236.171875 385.539062 C 235.710938 385.539062 235.339844 385.910156 235.339844 386.371094 C 235.339844 386.832031 235.710938 387.203125 236.171875 387.203125 Z M 43.222656 407.871094 C 43.257812 407.871094 43.28125 407.84375 43.28125 407.8125 C 43.28125 407.777344 43.257812 407.753906 43.222656 407.753906 C 43.191406 407.753906 43.164062 407.777344 43.164062 407.8125 C 43.164062 407.84375 43.191406 407.871094 43.222656 407.871094 Z M 64.660156 407.992188 C 64.761719 407.992188 64.839844 407.910156 64.839844 407.8125 C 64.839844 407.714844 64.761719 407.632812 64.660156 407.632812 C 64.5625 407.632812 64.484375 407.714844 64.484375 407.8125 C 64.484375 407.910156 64.5625 407.992188 64.660156 407.992188 Z M 86.101562 408.109375 C 86.265625 408.109375 86.398438 407.976562 86.398438 407.8125 C 86.398438 407.648438 86.265625 407.515625 86.101562 407.515625 C 85.9375 407.515625 85.804688 407.648438 85.804688 407.8125 C 85.804688 407.976562 85.9375 408.109375 86.101562 408.109375 Z M 107.539062 408.289062 C 107.800781 408.289062 108.015625 408.074219 108.015625 407.8125 C 108.015625 407.550781 107.800781 407.335938 107.539062 407.335938 C 107.277344 407.335938 107.0625 407.550781 107.0625 407.8125 C 107.0625 408.074219 107.277344 408.289062 107.539062 408.289062 Z M 128.976562 408.464844 C 129.339844 408.464844 129.632812 408.171875 129.632812 407.8125 C 129.632812 407.453125 129.339844 407.15625 128.976562 407.15625 C 128.617188 407.15625 128.324219 407.453125 128.324219 407.8125 C 128.324219 408.171875 128.617188 408.464844 128.976562 408.464844 Z M 150.417969 408.640625 C 150.875 408.640625 151.25 408.269531 151.25 407.8125 C 151.25 407.351562 150.875 406.976562 150.417969 406.976562 C 149.957031 406.976562 149.585938 407.351562 149.585938 407.8125 C 149.585938 408.269531 149.957031 408.640625 150.417969 408.640625 Z M 171.855469 408.640625 C 172.316406 408.640625 172.6875 408.269531 172.6875 407.8125 C 172.6875 407.351562 172.316406 406.976562 171.855469 406.976562 C 171.394531 406.976562 171.023438 407.351562 171.023438 407.8125 C 171.023438 408.269531 171.394531 408.640625 171.855469 408.640625 Z M 193.292969 408.402344 C 193.621094 408.402344 193.890625 408.140625 193.890625 407.8125 C 193.890625 407.484375 193.621094 407.214844 193.292969 407.214844 C 192.964844 407.214844 192.699219 407.484375 192.699219 407.8125 C 192.699219 408.140625 192.964844 408.402344 193.292969 408.402344 Z M 214.734375 407.929688 C 214.796875 407.929688 214.851562 407.878906 214.851562 407.8125 C 214.851562 407.746094 214.796875 407.691406 214.734375 407.691406 C 214.667969 407.691406 214.613281 407.746094 214.613281 407.8125 C 214.613281 407.878906 214.667969 407.929688 214.734375 407.929688 Z M 107.539062 429.308594 C 107.570312 429.308594 107.597656 429.28125 107.597656 429.25 C 107.597656 429.21875 107.574219 429.191406 107.539062 429.191406 C 107.507812 429.191406 107.480469 429.21875 107.480469 429.25 C 107.480469 429.28125 107.507812 429.308594 107.539062 429.308594 Z M 128.976562 429.308594 C 129.011719 429.308594 129.039062 429.28125 129.039062 429.25 C 129.039062 429.21875 129.011719 429.191406 128.976562 429.191406 C 128.945312 429.191406 128.917969 429.21875 128.917969 429.25 C 128.917969 429.28125 128.945312 429.308594 128.976562 429.308594 Z M 150.417969 429.308594 C 150.449219 429.308594 150.476562 429.28125 150.476562 429.25 C 150.476562 429.21875 150.449219 429.191406 150.417969 429.191406 C 150.382812 429.191406 150.355469 429.21875 150.355469 429.25 C 150.355469 429.28125 150.382812 429.308594 150.417969 429.308594 Z M 150.417969 429.308594 " fill-opacity="1" fill-rule="nonzero"/><path fill="#531412" d="M 64.542969 0.476562 C 64.542969 0.410156 64.597656 0.355469 64.660156 0.355469 C 64.726562 0.355469 64.78125 0.410156 64.78125 0.476562 C 64.78125 0.542969 64.726562 0.59375 64.660156 0.59375 C 64.597656 0.59375 64.542969 0.542969 64.542969 0.476562 Z M 86.101562 0.949219 C 86.363281 0.949219 86.578125 0.738281 86.578125 0.476562 C 86.578125 0.214844 86.363281 0 86.101562 0 C 85.839844 0 85.625 0.214844 85.625 0.476562 C 85.625 0.738281 85.839844 0.949219 86.101562 0.949219 Z M 107.539062 0.949219 C 107.800781 0.949219 108.015625 0.738281 108.015625 0.476562 C 108.015625 0.214844 107.800781 0 107.539062 0 C 107.277344 0 107.0625 0.214844 107.0625 0.476562 C 107.0625 0.738281 107.277344 0.949219 107.539062 0.949219 Z M 128.976562 0.832031 C 129.175781 0.832031 129.335938 0.671875 129.335938 0.476562 C 129.335938 0.277344 129.175781 0.117188 128.976562 0.117188 C 128.78125 0.117188 128.621094 0.277344 128.621094 0.476562 C 128.621094 0.671875 128.78125 0.832031 128.976562 0.832031 Z M 150.417969 0.652344 C 150.515625 0.652344 150.59375 0.574219 150.59375 0.476562 C 150.59375 0.378906 150.515625 0.296875 150.417969 0.296875 C 150.316406 0.296875 150.238281 0.378906 150.238281 0.476562 C 150.238281 0.574219 150.316406 0.652344 150.417969 0.652344 Z M 64.660156 22.925781 C 65.21875 22.925781 65.671875 22.472656 65.671875 21.914062 C 65.671875 21.355469 65.21875 20.902344 64.660156 20.902344 C 64.105469 20.902344 63.652344 21.355469 63.652344 21.914062 C 63.652344 22.472656 64.105469 22.925781 64.660156 22.925781 Z M 86.101562 23.996094 C 87.25 23.996094 88.179688 23.0625 88.179688 21.914062 C 88.179688 20.765625 87.25 19.832031 86.101562 19.832031 C 84.953125 19.832031 84.019531 20.765625 84.019531 21.914062 C 84.019531 23.0625 84.953125 23.996094 86.101562 23.996094 Z M 107.539062 24.648438 C 109.050781 24.648438 110.273438 23.425781 110.273438 21.914062 C 110.273438 20.402344 109.050781 19.179688 107.539062 19.179688 C 106.027344 19.179688 104.804688 20.402344 104.804688 21.914062 C 104.804688 23.425781 106.027344 24.648438 107.539062 24.648438 Z M 128.976562 24.707031 C 130.519531 24.707031 131.773438 23.457031 131.773438 21.914062 C 131.773438 20.371094 130.519531 19.121094 128.976562 19.121094 C 127.433594 19.121094 126.183594 20.371094 126.183594 21.914062 C 126.183594 23.457031 127.433594 24.707031 128.976562 24.707031 Z M 150.417969 23.9375 C 151.53125 23.9375 152.4375 23.03125 152.4375 21.914062 C 152.4375 20.796875 151.53125 19.894531 150.417969 19.894531 C 149.300781 19.894531 148.394531 20.796875 148.394531 21.914062 C 148.394531 23.03125 149.300781 23.9375 150.417969 23.9375 Z M 171.855469 23.042969 C 172.480469 23.042969 172.984375 22.539062 172.984375 21.914062 C 172.984375 21.289062 172.480469 20.785156 171.855469 20.785156 C 171.230469 20.785156 170.726562 21.289062 170.726562 21.914062 C 170.726562 22.539062 171.230469 23.042969 171.855469 23.042969 Z M 193.292969 22.332031 C 193.523438 22.332031 193.710938 22.144531 193.710938 21.914062 C 193.710938 21.683594 193.523438 21.496094 193.292969 21.496094 C 193.0625 21.496094 192.878906 21.683594 192.878906 21.914062 C 192.878906 22.144531 193.0625 22.332031 193.292969 22.332031 Z M 214.734375 21.972656 C 214.765625 21.972656 214.792969 21.949219 214.792969 21.914062 C 214.792969 21.882812 214.765625 21.855469 214.734375 21.855469 C 214.699219 21.855469 214.671875 21.882812 214.671875 21.914062 C 214.671875 21.949219 214.699219 21.972656 214.734375 21.972656 Z M 128.976562 43.769531 C 129.207031 43.769531 129.394531 43.582031 129.394531 43.351562 C 129.394531 43.121094 129.207031 42.9375 128.976562 42.9375 C 128.75 42.9375 128.5625 43.121094 128.5625 43.351562 C 128.5625 43.582031 128.75 43.769531 128.976562 43.769531 Z M 150.417969 44.71875 C 151.171875 44.71875 151.785156 44.109375 151.785156 43.351562 C 151.785156 42.597656 151.171875 41.984375 150.417969 41.984375 C 149.660156 41.984375 149.050781 42.597656 149.050781 43.351562 C 149.050781 44.109375 149.660156 44.71875 150.417969 44.71875 Z M 171.855469 44.660156 C 172.578125 44.660156 173.164062 44.074219 173.164062 43.351562 C 173.164062 42.628906 172.578125 42.046875 171.855469 42.046875 C 171.132812 42.046875 170.546875 42.628906 170.546875 43.351562 C 170.546875 44.074219 171.132812 44.660156 171.855469 44.660156 Z M 193.292969 44.183594 C 193.753906 44.183594 194.125 43.8125 194.125 43.351562 C 194.125 42.894531 193.753906 42.519531 193.292969 42.519531 C 192.835938 42.519531 192.460938 42.894531 192.460938 43.351562 C 192.460938 43.8125 192.835938 44.183594 193.292969 44.183594 Z M 214.734375 43.769531 C 214.960938 43.769531 215.148438 43.582031 215.148438 43.351562 C 215.148438 43.121094 214.960938 42.9375 214.734375 42.9375 C 214.503906 42.9375 214.316406 43.121094 214.316406 43.351562 C 214.316406 43.582031 214.503906 43.769531 214.734375 43.769531 Z M 236.171875 43.414062 C 236.203125 43.414062 236.230469 43.386719 236.230469 43.351562 C 236.230469 43.320312 236.203125 43.292969 236.171875 43.292969 C 236.136719 43.292969 236.113281 43.320312 236.113281 43.351562 C 236.113281 43.386719 236.136719 43.414062 236.171875 43.414062 Z M 171.855469 65.445312 C 172.214844 65.445312 172.507812 65.152344 172.507812 64.792969 C 172.507812 64.429688 172.214844 64.136719 171.855469 64.136719 C 171.496094 64.136719 171.203125 64.429688 171.203125 64.792969 C 171.203125 65.152344 171.496094 65.445312 171.855469 65.445312 Z M 193.292969 65.5625 C 193.722656 65.5625 194.066406 65.21875 194.066406 64.792969 C 194.066406 64.363281 193.722656 64.019531 193.292969 64.019531 C 192.867188 64.019531 192.523438 64.363281 192.523438 64.792969 C 192.523438 65.21875 192.867188 65.5625 193.292969 65.5625 Z M 214.734375 65.207031 C 214.960938 65.207031 215.148438 65.019531 215.148438 64.792969 C 215.148438 64.5625 214.960938 64.375 214.734375 64.375 C 214.503906 64.375 214.316406 64.5625 214.316406 64.792969 C 214.316406 65.019531 214.503906 65.207031 214.734375 65.207031 Z M 236.171875 64.96875 C 236.269531 64.96875 236.351562 64.890625 236.351562 64.792969 C 236.351562 64.691406 236.269531 64.613281 236.171875 64.613281 C 236.074219 64.613281 235.992188 64.691406 235.992188 64.792969 C 235.992188 64.890625 236.074219 64.96875 236.171875 64.96875 Z M 193.292969 86.765625 C 193.589844 86.765625 193.828125 86.527344 193.828125 86.230469 C 193.828125 85.933594 193.589844 85.695312 193.292969 85.695312 C 193 85.695312 192.757812 85.933594 192.757812 86.230469 C 192.757812 86.527344 193 86.765625 193.292969 86.765625 Z M 214.734375 86.707031 C 214.996094 86.707031 215.207031 86.492188 215.207031 86.230469 C 215.207031 85.96875 214.996094 85.753906 214.734375 85.753906 C 214.46875 85.753906 214.257812 85.96875 214.257812 86.230469 C 214.257812 86.492188 214.46875 86.707031 214.734375 86.707031 Z M 236.171875 86.46875 C 236.304688 86.46875 236.410156 86.359375 236.410156 86.230469 C 236.410156 86.097656 236.304688 85.992188 236.171875 85.992188 C 236.039062 85.992188 235.933594 86.097656 235.933594 86.230469 C 235.933594 86.359375 236.039062 86.46875 236.171875 86.46875 Z M 257.609375 86.347656 C 257.675781 86.347656 257.730469 86.296875 257.730469 86.230469 C 257.730469 86.164062 257.675781 86.109375 257.609375 86.109375 C 257.542969 86.109375 257.492188 86.164062 257.492188 86.230469 C 257.492188 86.296875 257.542969 86.347656 257.609375 86.347656 Z M 279.050781 86.289062 C 279.082031 86.289062 279.109375 86.261719 279.109375 86.230469 C 279.109375 86.195312 279.082031 86.171875 279.050781 86.171875 C 279.015625 86.171875 278.988281 86.195312 278.988281 86.230469 C 278.988281 86.261719 279.015625 86.289062 279.050781 86.289062 Z M 193.292969 107.726562 C 193.328125 107.726562 193.355469 107.703125 193.355469 107.667969 C 193.355469 107.636719 193.328125 107.609375 193.292969 107.609375 C 193.261719 107.609375 193.234375 107.636719 193.234375 107.667969 C 193.234375 107.703125 193.261719 107.726562 193.292969 107.726562 Z M 214.734375 108.324219 C 215.09375 108.324219 215.386719 108.03125 215.386719 107.667969 C 215.386719 107.308594 215.09375 107.015625 214.734375 107.015625 C 214.371094 107.015625 214.078125 107.308594 214.078125 107.667969 C 214.078125 108.03125 214.371094 108.324219 214.734375 108.324219 Z M 236.171875 108.144531 C 236.433594 108.144531 236.648438 107.929688 236.648438 107.667969 C 236.648438 107.40625 236.433594 107.191406 236.171875 107.191406 C 235.910156 107.191406 235.695312 107.40625 235.695312 107.667969 C 235.695312 107.929688 235.910156 108.144531 236.171875 108.144531 Z M 257.609375 108.027344 C 257.808594 108.027344 257.96875 107.867188 257.96875 107.667969 C 257.96875 107.472656 257.808594 107.3125 257.609375 107.3125 C 257.414062 107.3125 257.253906 107.472656 257.253906 107.667969 C 257.253906 107.867188 257.414062 108.027344 257.609375 108.027344 Z M 279.050781 107.964844 C 279.214844 107.964844 279.347656 107.832031 279.347656 107.667969 C 279.347656 107.503906 279.214844 107.371094 279.050781 107.371094 C 278.886719 107.371094 278.75 107.503906 278.75 107.667969 C 278.75 107.832031 278.886719 107.964844 279.050781 107.964844 Z M 300.488281 107.726562 C 300.519531 107.726562 300.546875 107.703125 300.546875 107.667969 C 300.546875 107.636719 300.519531 107.609375 300.488281 107.609375 C 300.457031 107.609375 300.429688 107.636719 300.429688 107.667969 C 300.429688 107.703125 300.457031 107.726562 300.488281 107.726562 Z M 214.734375 129.640625 C 215.027344 129.640625 215.269531 129.402344 215.269531 129.105469 C 215.269531 128.8125 215.027344 128.570312 214.734375 128.570312 C 214.4375 128.570312 214.199219 128.8125 214.199219 129.105469 C 214.199219 129.402344 214.4375 129.640625 214.734375 129.640625 Z M 236.171875 129.9375 C 236.632812 129.9375 237.003906 129.566406 237.003906 129.105469 C 237.003906 128.648438 236.632812 128.273438 236.171875 128.273438 C 235.710938 128.273438 235.339844 128.648438 235.339844 129.105469 C 235.339844 129.566406 235.710938 129.9375 236.171875 129.9375 Z M 257.609375 129.761719 C 257.972656 129.761719 258.265625 129.46875 258.265625 129.105469 C 258.265625 128.746094 257.972656 128.453125 257.609375 128.453125 C 257.25 128.453125 256.957031 128.746094 256.957031 129.105469 C 256.957031 129.46875 257.25 129.761719 257.609375 129.761719 Z M 279.050781 129.761719 C 279.410156 129.761719 279.703125 129.46875 279.703125 129.105469 C 279.703125 128.746094 279.410156 128.453125 279.050781 128.453125 C 278.6875 128.453125 278.394531 128.746094 278.394531 129.105469 C 278.394531 129.46875 278.6875 129.761719 279.050781 129.761719 Z M 300.488281 129.582031 C 300.75 129.582031 300.964844 129.371094 300.964844 129.105469 C 300.964844 128.84375 300.75 128.632812 300.488281 128.632812 C 300.226562 128.632812 300.011719 128.84375 300.011719 129.105469 C 300.011719 129.371094 300.226562 129.582031 300.488281 129.582031 Z M 214.734375 150.84375 C 214.898438 150.84375 215.03125 150.710938 215.03125 150.546875 C 215.03125 150.382812 214.898438 150.25 214.734375 150.25 C 214.570312 150.25 214.4375 150.382812 214.4375 150.546875 C 214.4375 150.710938 214.570312 150.84375 214.734375 150.84375 Z M 236.171875 151.855469 C 236.894531 151.855469 237.480469 151.269531 237.480469 150.546875 C 237.480469 149.824219 236.894531 149.238281 236.171875 149.238281 C 235.449219 149.238281 234.863281 149.824219 234.863281 150.546875 C 234.863281 151.269531 235.449219 151.855469 236.171875 151.855469 Z M 257.609375 151.734375 C 258.265625 151.734375 258.800781 151.203125 258.800781 150.546875 C 258.800781 149.890625 258.265625 149.355469 257.609375 149.355469 C 256.953125 149.355469 256.421875 149.890625 256.421875 150.546875 C 256.421875 151.203125 256.953125 151.734375 257.609375 151.734375 Z M 279.050781 151.734375 C 279.707031 151.734375 280.238281 151.203125 280.238281 150.546875 C 280.238281 149.890625 279.707031 149.355469 279.050781 149.355469 C 278.390625 149.355469 277.859375 149.890625 277.859375 150.546875 C 277.859375 151.203125 278.390625 151.734375 279.050781 151.734375 Z M 300.488281 151.734375 C 301.144531 151.734375 301.675781 151.203125 301.675781 150.546875 C 301.675781 149.890625 301.144531 149.355469 300.488281 149.355469 C 299.828125 149.355469 299.300781 149.890625 299.300781 150.546875 C 299.300781 151.203125 299.828125 151.734375 300.488281 151.734375 Z M 321.925781 150.605469 C 321.960938 150.605469 321.984375 150.578125 321.984375 150.546875 C 321.984375 150.511719 321.960938 150.484375 321.925781 150.484375 C 321.894531 150.484375 321.867188 150.511719 321.867188 150.546875 C 321.867188 150.578125 321.894531 150.605469 321.925781 150.605469 Z M 214.734375 172.164062 C 214.832031 172.164062 214.910156 172.082031 214.910156 171.984375 C 214.910156 171.886719 214.832031 171.804688 214.734375 171.804688 C 214.632812 171.804688 214.554688 171.886719 214.554688 171.984375 C 214.554688 172.082031 214.632812 172.164062 214.734375 172.164062 Z M 236.171875 173.828125 C 237.1875 173.828125 238.015625 173.003906 238.015625 171.984375 C 238.015625 170.964844 237.1875 170.140625 236.171875 170.140625 C 235.152344 170.140625 234.328125 170.964844 234.328125 171.984375 C 234.328125 173.003906 235.152344 173.828125 236.171875 173.828125 Z M 257.609375 173.769531 C 258.59375 173.769531 259.394531 172.96875 259.394531 171.984375 C 259.394531 171 258.59375 170.199219 257.609375 170.199219 C 256.625 170.199219 255.828125 171 255.828125 171.984375 C 255.828125 172.96875 256.625 173.769531 257.609375 173.769531 Z M 279.050781 173.769531 C 280.035156 173.769531 280.832031 172.96875 280.832031 171.984375 C 280.832031 171 280.035156 170.199219 279.050781 170.199219 C 278.0625 170.199219 277.265625 171 277.265625 171.984375 C 277.265625 172.96875 278.0625 173.769531 279.050781 173.769531 Z M 300.488281 173.886719 C 301.539062 173.886719 302.390625 173.035156 302.390625 171.984375 C 302.390625 170.933594 301.539062 170.082031 300.488281 170.082031 C 299.4375 170.082031 298.585938 170.933594 298.585938 171.984375 C 298.585938 173.035156 299.4375 173.886719 300.488281 173.886719 Z M 321.925781 172.460938 C 322.1875 172.460938 322.402344 172.246094 322.402344 171.984375 C 322.402344 171.722656 322.1875 171.507812 321.925781 171.507812 C 321.664062 171.507812 321.449219 171.722656 321.449219 171.984375 C 321.449219 172.246094 321.664062 172.460938 321.925781 172.460938 Z M 214.734375 193.601562 C 214.832031 193.601562 214.910156 193.519531 214.910156 193.421875 C 214.910156 193.324219 214.832031 193.246094 214.734375 193.246094 C 214.632812 193.246094 214.554688 193.324219 214.554688 193.421875 C 214.554688 193.519531 214.632812 193.601562 214.734375 193.601562 Z M 236.171875 195.917969 C 237.550781 195.917969 238.667969 194.800781 238.667969 193.421875 C 238.667969 192.042969 237.550781 190.925781 236.171875 190.925781 C 234.792969 190.925781 233.675781 192.042969 233.675781 193.421875 C 233.675781 194.800781 234.792969 195.917969 236.171875 195.917969 Z M 257.609375 195.917969 C 258.988281 195.917969 260.105469 194.800781 260.105469 193.421875 C 260.105469 192.042969 258.988281 190.925781 257.609375 190.925781 C 256.230469 190.925781 255.113281 192.042969 255.113281 193.421875 C 255.113281 194.800781 256.230469 195.917969 257.609375 195.917969 Z M 279.050781 195.917969 C 280.429688 195.917969 281.546875 194.800781 281.546875 193.421875 C 281.546875 192.042969 280.429688 190.925781 279.050781 190.925781 C 277.671875 190.925781 276.550781 192.042969 276.550781 193.421875 C 276.550781 194.800781 277.671875 195.917969 279.050781 195.917969 Z M 300.488281 196.039062 C 301.933594 196.039062 303.101562 194.867188 303.101562 193.421875 C 303.101562 191.976562 301.933594 190.808594 300.488281 190.808594 C 299.042969 190.808594 297.871094 191.976562 297.871094 193.421875 C 297.871094 194.867188 299.042969 196.039062 300.488281 196.039062 Z M 321.925781 194.492188 C 322.515625 194.492188 322.996094 194.011719 322.996094 193.421875 C 322.996094 192.832031 322.515625 192.351562 321.925781 192.351562 C 321.335938 192.351562 320.859375 192.832031 320.859375 193.421875 C 320.859375 194.011719 321.335938 194.492188 321.925781 194.492188 Z M 214.734375 215.277344 C 214.960938 215.277344 215.148438 215.089844 215.148438 214.859375 C 215.148438 214.632812 214.960938 214.445312 214.734375 214.445312 C 214.503906 214.445312 214.316406 214.632812 214.316406 214.859375 C 214.316406 215.089844 214.503906 215.277344 214.734375 215.277344 Z M 236.171875 218.25 C 238.042969 218.25 239.558594 216.734375 239.558594 214.863281 C 239.558594 212.988281 238.042969 211.472656 236.171875 211.472656 C 234.300781 211.472656 232.78125 212.988281 232.78125 214.863281 C 232.78125 216.734375 234.300781 218.25 236.171875 218.25 Z M 257.609375 218.25 C 259.480469 218.25 261 216.734375 261 214.863281 C 261 212.988281 259.480469 211.472656 257.609375 211.472656 C 255.738281 211.472656 254.222656 212.988281 254.222656 214.863281 C 254.222656 216.734375 255.738281 218.25 257.609375 218.25 Z M 279.050781 218.25 C 280.921875 218.25 282.4375 216.734375 282.4375 214.863281 C 282.4375 212.988281 280.921875 211.472656 279.050781 211.472656 C 277.175781 211.472656 275.660156 212.988281 275.660156 214.863281 C 275.660156 216.734375 277.175781 218.25 279.050781 218.25 Z M 300.488281 218.367188 C 302.421875 218.367188 303.996094 216.796875 303.996094 214.859375 C 303.996094 212.925781 302.421875 211.355469 300.488281 211.355469 C 298.550781 211.355469 296.980469 212.925781 296.980469 214.859375 C 296.980469 216.796875 298.550781 218.367188 300.488281 218.367188 Z M 321.925781 216.347656 C 322.75 216.347656 323.414062 215.683594 323.414062 214.863281 C 323.414062 214.039062 322.75 213.375 321.925781 213.375 C 321.105469 213.375 320.441406 214.039062 320.441406 214.863281 C 320.441406 215.683594 321.105469 216.347656 321.925781 216.347656 Z M 214.734375 237.726562 C 215.519531 237.726562 216.160156 237.089844 216.160156 236.300781 C 216.160156 235.511719 215.519531 234.875 214.734375 234.875 C 213.945312 234.875 213.304688 235.511719 213.304688 236.300781 C 213.304688 237.089844 213.945312 237.726562 214.734375 237.726562 Z M 236.171875 240.816406 C 238.667969 240.816406 240.691406 238.796875 240.691406 236.300781 C 240.691406 233.804688 238.667969 231.78125 236.171875 231.78125 C 233.675781 231.78125 231.652344 233.804688 231.652344 236.300781 C 231.652344 238.796875 233.675781 240.816406 236.171875 240.816406 Z M 257.609375 240.699219 C 260.039062 240.699219 262.007812 238.730469 262.007812 236.300781 C 262.007812 233.871094 260.039062 231.902344 257.609375 231.902344 C 255.179688 231.902344 253.210938 233.871094 253.210938 236.300781 C 253.210938 238.730469 255.179688 240.699219 257.609375 240.699219 Z M 279.050781 240.699219 C 281.480469 240.699219 283.449219 238.730469 283.449219 236.300781 C 283.449219 233.871094 281.476562 231.902344 279.050781 231.902344 C 276.621094 231.902344 274.648438 233.871094 274.648438 236.300781 C 274.648438 238.730469 276.621094 240.699219 279.050781 240.699219 Z M 300.488281 240.878906 C 303.015625 240.878906 305.066406 238.828125 305.066406 236.300781 C 305.066406 233.773438 303.015625 231.722656 300.488281 231.722656 C 297.960938 231.722656 295.910156 233.773438 295.910156 236.300781 C 295.910156 238.828125 297.960938 240.878906 300.488281 240.878906 Z M 321.925781 238.144531 C 322.945312 238.144531 323.769531 237.316406 323.769531 236.300781 C 323.769531 235.28125 322.945312 234.457031 321.925781 234.457031 C 320.910156 234.457031 320.082031 235.28125 320.082031 236.300781 C 320.082031 237.316406 320.910156 238.144531 321.925781 238.144531 Z M 214.734375 261.664062 C 216.898438 261.664062 218.65625 259.90625 218.65625 257.738281 C 218.65625 255.570312 216.898438 253.816406 214.734375 253.816406 C 212.566406 253.816406 210.808594 255.570312 210.808594 257.738281 C 210.808594 259.90625 212.566406 261.664062 214.734375 261.664062 Z M 236.171875 263.503906 C 239.355469 263.503906 241.9375 260.921875 241.9375 257.738281 C 241.9375 254.554688 239.355469 251.972656 236.171875 251.972656 C 232.988281 251.972656 230.40625 254.554688 230.40625 257.738281 C 230.40625 260.921875 232.988281 263.503906 236.171875 263.503906 Z M 257.609375 263.328125 C 260.695312 263.328125 263.199219 260.824219 263.199219 257.738281 C 263.199219 254.652344 260.695312 252.152344 257.609375 252.152344 C 254.523438 252.152344 252.023438 254.652344 252.023438 257.738281 C 252.023438 260.824219 254.523438 263.328125 257.609375 263.328125 Z M 279.050781 263.328125 C 282.136719 263.328125 284.636719 260.824219 284.636719 257.738281 C 284.636719 254.652344 282.136719 252.152344 279.050781 252.152344 C 275.960938 252.152344 273.460938 254.652344 273.460938 257.738281 C 273.460938 260.824219 275.960938 263.328125 279.050781 263.328125 Z M 300.488281 263.503906 C 303.671875 263.503906 306.253906 260.921875 306.253906 257.738281 C 306.253906 254.554688 303.671875 251.972656 300.488281 251.972656 C 297.304688 251.972656 294.722656 254.554688 294.722656 257.738281 C 294.722656 260.921875 297.304688 263.503906 300.488281 263.503906 Z M 321.925781 259.105469 C 322.683594 259.105469 323.292969 258.492188 323.292969 257.738281 C 323.292969 256.984375 322.683594 256.371094 321.925781 256.371094 C 321.171875 256.371094 320.558594 256.984375 320.558594 257.738281 C 320.558594 258.492188 321.171875 259.105469 321.925781 259.105469 Z M 193.292969 280.722656 C 194.148438 280.722656 194.839844 280.03125 194.839844 279.175781 C 194.839844 278.324219 194.148438 277.632812 193.292969 277.632812 C 192.441406 277.632812 191.75 278.324219 191.75 279.175781 C 191.75 280.03125 192.441406 280.722656 193.292969 280.722656 Z M 214.734375 286.371094 C 218.707031 286.371094 221.925781 283.152344 221.925781 279.175781 C 221.925781 275.203125 218.707031 271.984375 214.734375 271.984375 C 210.761719 271.984375 207.539062 275.203125 207.539062 279.175781 C 207.539062 283.152344 210.761719 286.371094 214.734375 286.371094 Z M 236.171875 286.3125 C 240.113281 286.3125 243.304688 283.117188 243.304688 279.175781 C 243.304688 275.238281 240.109375 272.042969 236.171875 272.042969 C 232.230469 272.042969 229.039062 275.238281 229.039062 279.175781 C 229.039062 283.117188 232.230469 286.3125 236.171875 286.3125 Z M 257.609375 286.132812 C 261.453125 286.132812 264.566406 283.019531 264.566406 279.175781 C 264.566406 275.335938 261.453125 272.222656 257.609375 272.222656 C 253.769531 272.222656 250.65625 275.335938 250.65625 279.175781 C 250.65625 283.019531 253.769531 286.132812 257.609375 286.132812 Z M 279.050781 286.132812 C 282.890625 286.132812 286.003906 283.019531 286.003906 279.175781 C 286.003906 275.335938 282.890625 272.222656 279.050781 272.222656 C 275.207031 272.222656 272.09375 275.335938 272.09375 279.175781 C 272.09375 283.019531 275.207031 286.132812 279.050781 286.132812 Z M 300.488281 285.65625 C 304.066406 285.65625 306.96875 282.757812 306.96875 279.175781 C 306.96875 275.597656 304.066406 272.699219 300.488281 272.699219 C 296.910156 272.699219 294.007812 275.597656 294.007812 279.175781 C 294.007812 282.757812 296.910156 285.65625 300.488281 285.65625 Z M 321.925781 279.535156 C 322.125 279.535156 322.285156 279.375 322.285156 279.175781 C 322.285156 278.980469 322.125 278.820312 321.925781 278.820312 C 321.730469 278.820312 321.570312 278.980469 321.570312 279.175781 C 321.570312 279.375 321.730469 279.535156 321.925781 279.535156 Z M 171.855469 301.089844 C 172.117188 301.089844 172.332031 300.878906 172.332031 300.613281 C 172.332031 300.351562 172.117188 300.140625 171.855469 300.140625 C 171.59375 300.140625 171.378906 300.351562 171.378906 300.613281 C 171.378906 300.878906 171.59375 301.089844 171.855469 301.089844 Z M 193.292969 306.621094 C 196.609375 306.621094 199.296875 303.933594 199.296875 300.613281 C 199.296875 297.300781 196.609375 294.613281 193.292969 294.613281 C 189.976562 294.613281 187.289062 297.300781 187.289062 300.613281 C 187.289062 303.933594 189.976562 306.621094 193.292969 306.621094 Z M 214.734375 308.523438 C 219.097656 308.523438 222.640625 304.984375 222.640625 300.613281 C 222.640625 296.25 219.097656 292.710938 214.734375 292.710938 C 210.367188 292.710938 206.828125 296.25 206.828125 300.613281 C 206.828125 304.984375 210.367188 308.523438 214.734375 308.523438 Z M 236.171875 308.644531 C 240.605469 308.644531 244.195312 305.050781 244.195312 300.613281 C 244.195312 296.183594 240.605469 292.589844 236.171875 292.589844 C 231.738281 292.589844 228.144531 296.183594 228.144531 300.613281 C 228.144531 305.050781 231.738281 308.644531 236.171875 308.644531 Z M 257.609375 308.703125 C 262.074219 308.703125 265.695312 305.082031 265.695312 300.613281 C 265.695312 296.152344 262.074219 292.53125 257.609375 292.53125 C 253.144531 292.53125 249.523438 296.152344 249.523438 300.613281 C 249.523438 305.082031 253.144531 308.703125 257.609375 308.703125 Z M 279.050781 308.703125 C 283.515625 308.703125 287.132812 305.082031 287.132812 300.613281 C 287.132812 296.152344 283.515625 292.53125 279.050781 292.53125 C 274.582031 292.53125 270.964844 296.152344 270.964844 300.613281 C 270.964844 305.082031 274.582031 308.703125 279.050781 308.703125 Z M 300.488281 305.375 C 303.113281 305.375 305.242188 303.242188 305.242188 300.613281 C 305.242188 297.988281 303.113281 295.859375 300.488281 295.859375 C 297.859375 295.859375 295.730469 297.988281 295.730469 300.613281 C 295.730469 303.242188 297.859375 305.375 300.488281 305.375 Z M 150.417969 322.472656 C 150.648438 322.472656 150.832031 322.285156 150.832031 322.054688 C 150.832031 321.824219 150.648438 321.636719 150.417969 321.636719 C 150.1875 321.636719 150 321.824219 150 322.054688 C 150 322.285156 150.1875 322.472656 150.417969 322.472656 Z M 171.855469 326.039062 C 174.054688 326.039062 175.839844 324.253906 175.839844 322.054688 C 175.839844 319.855469 174.054688 318.074219 171.855469 318.074219 C 169.65625 318.074219 167.871094 319.855469 167.871094 322.054688 C 167.871094 324.253906 169.65625 326.039062 171.855469 326.039062 Z M 193.292969 327.820312 C 196.480469 327.820312 199.0625 325.238281 199.0625 322.054688 C 199.0625 318.871094 196.480469 316.289062 193.292969 316.289062 C 190.109375 316.289062 187.527344 318.871094 187.527344 322.054688 C 187.527344 325.238281 190.109375 327.820312 193.292969 327.820312 Z M 214.734375 328.238281 C 218.148438 328.238281 220.914062 325.46875 220.914062 322.054688 C 220.914062 318.640625 218.148438 315.871094 214.734375 315.871094 C 211.316406 315.871094 208.550781 318.640625 208.550781 322.054688 C 208.550781 325.46875 211.316406 328.238281 214.734375 328.238281 Z M 236.171875 328.476562 C 239.71875 328.476562 242.59375 325.601562 242.59375 322.054688 C 242.59375 318.507812 239.71875 315.632812 236.171875 315.632812 C 232.625 315.632812 229.75 318.507812 229.75 322.054688 C 229.75 325.601562 232.625 328.476562 236.171875 328.476562 Z M 257.609375 328.65625 C 261.253906 328.65625 264.210938 325.699219 264.210938 322.054688 C 264.210938 318.410156 261.253906 315.457031 257.609375 315.457031 C 253.964844 315.457031 251.011719 318.410156 251.011719 322.054688 C 251.011719 325.699219 253.964844 328.65625 257.609375 328.65625 Z M 279.050781 328.238281 C 282.464844 328.238281 285.230469 325.46875 285.230469 322.054688 C 285.230469 318.640625 282.464844 315.871094 279.050781 315.871094 C 275.632812 315.871094 272.867188 318.640625 272.867188 322.054688 C 272.867188 325.46875 275.632812 328.238281 279.050781 328.238281 Z M 300.488281 322.945312 C 300.980469 322.945312 301.378906 322.546875 301.378906 322.054688 C 301.378906 321.5625 300.980469 321.164062 300.488281 321.164062 C 299.992188 321.164062 299.59375 321.5625 299.59375 322.054688 C 299.59375 322.546875 299.992188 322.945312 300.488281 322.945312 Z M 107.539062 343.613281 C 107.605469 343.613281 107.660156 343.558594 107.660156 343.492188 C 107.660156 343.425781 107.605469 343.375 107.539062 343.375 C 107.472656 343.375 107.421875 343.425781 107.421875 343.492188 C 107.421875 343.558594 107.472656 343.613281 107.539062 343.613281 Z M 128.976562 344.625 C 129.601562 344.625 130.109375 344.117188 130.109375 343.492188 C 130.109375 342.871094 129.601562 342.363281 128.976562 342.363281 C 128.355469 342.363281 127.847656 342.871094 127.847656 343.492188 C 127.847656 344.117188 128.355469 344.625 128.976562 344.625 Z M 150.417969 346.527344 C 152.089844 346.527344 153.449219 345.167969 153.449219 343.492188 C 153.449219 341.820312 152.089844 340.460938 150.417969 340.460938 C 148.742188 340.460938 147.386719 341.820312 147.386719 343.492188 C 147.386719 345.167969 148.742188 346.527344 150.417969 346.527344 Z M 171.855469 347.359375 C 173.988281 347.359375 175.71875 345.628906 175.71875 343.492188 C 175.71875 341.359375 173.988281 339.628906 171.855469 339.628906 C 169.722656 339.628906 167.992188 341.359375 167.992188 343.492188 C 167.992188 345.628906 169.722656 347.359375 171.855469 347.359375 Z M 193.292969 347.773438 C 195.65625 347.773438 197.574219 345.855469 197.574219 343.492188 C 197.574219 341.132812 195.65625 339.214844 193.292969 339.214844 C 190.929688 339.214844 189.015625 341.132812 189.015625 343.492188 C 189.015625 345.855469 190.929688 347.773438 193.292969 347.773438 Z M 214.734375 348.070312 C 217.261719 348.070312 219.308594 346.019531 219.308594 343.492188 C 219.308594 340.964844 217.261719 338.917969 214.734375 338.917969 C 212.203125 338.917969 210.15625 340.964844 210.15625 343.492188 C 210.15625 346.019531 212.203125 348.070312 214.734375 348.070312 Z M 236.171875 348.308594 C 238.832031 348.308594 240.988281 346.15625 240.988281 343.492188 C 240.988281 340.832031 238.832031 338.679688 236.171875 338.679688 C 233.511719 338.679688 231.355469 340.832031 231.355469 343.492188 C 231.355469 346.15625 233.511719 348.308594 236.171875 348.308594 Z M 257.609375 348.371094 C 260.300781 348.371094 262.484375 346.1875 262.484375 343.492188 C 262.484375 340.800781 260.300781 338.617188 257.609375 338.617188 C 254.917969 338.617188 252.734375 340.800781 252.734375 343.492188 C 252.734375 346.1875 254.917969 348.371094 257.609375 348.371094 Z M 279.050781 345.453125 C 280.132812 345.453125 281.011719 344.578125 281.011719 343.492188 C 281.011719 342.410156 280.132812 341.535156 279.050781 341.535156 C 277.964844 341.535156 277.085938 342.410156 277.085938 343.492188 C 277.085938 344.578125 277.964844 345.453125 279.050781 345.453125 Z M 0.347656 365.054688 C 0.410156 365.054688 0.464844 365 0.464844 364.933594 C 0.464844 364.867188 0.410156 364.816406 0.347656 364.816406 C 0.28125 364.816406 0.226562 364.867188 0.226562 364.933594 C 0.226562 365 0.28125 365.054688 0.347656 365.054688 Z M 21.785156 365.113281 C 21.882812 365.113281 21.964844 365.03125 21.964844 364.933594 C 21.964844 364.835938 21.882812 364.753906 21.785156 364.753906 C 21.6875 364.753906 21.605469 364.835938 21.605469 364.933594 C 21.605469 365.03125 21.6875 365.113281 21.785156 365.113281 Z M 43.222656 365.171875 C 43.355469 365.171875 43.460938 365.066406 43.460938 364.933594 C 43.460938 364.804688 43.355469 364.695312 43.222656 364.695312 C 43.09375 364.695312 42.984375 364.804688 42.984375 364.933594 C 42.984375 365.066406 43.09375 365.171875 43.222656 365.171875 Z M 64.660156 365.351562 C 64.890625 365.351562 65.078125 365.164062 65.078125 364.933594 C 65.078125 364.703125 64.890625 364.515625 64.660156 364.515625 C 64.433594 364.515625 64.246094 364.703125 64.246094 364.933594 C 64.246094 365.164062 64.433594 365.351562 64.660156 365.351562 Z M 86.101562 365.765625 C 86.558594 365.765625 86.933594 365.394531 86.933594 364.933594 C 86.933594 364.472656 86.558594 364.101562 86.101562 364.101562 C 85.640625 364.101562 85.269531 364.472656 85.269531 364.933594 C 85.269531 365.394531 85.640625 365.765625 86.101562 365.765625 Z M 107.539062 366.421875 C 108.359375 366.421875 109.027344 365.753906 109.027344 364.933594 C 109.027344 364.113281 108.359375 363.449219 107.539062 363.449219 C 106.71875 363.449219 106.054688 364.113281 106.054688 364.933594 C 106.054688 365.753906 106.71875 366.421875 107.539062 366.421875 Z M 128.976562 366.898438 C 130.0625 366.898438 130.941406 366.019531 130.941406 364.933594 C 130.941406 363.851562 130.0625 362.972656 128.976562 362.972656 C 127.894531 362.972656 127.015625 363.851562 127.015625 364.933594 C 127.015625 366.019531 127.894531 366.898438 128.976562 366.898438 Z M 150.417969 367.308594 C 151.730469 367.308594 152.792969 366.246094 152.792969 364.933594 C 152.792969 363.621094 151.730469 362.554688 150.417969 362.554688 C 149.105469 362.554688 148.039062 363.621094 148.039062 364.933594 C 148.039062 366.246094 149.105469 367.308594 150.417969 367.308594 Z M 171.855469 367.667969 C 173.367188 367.667969 174.589844 366.445312 174.589844 364.933594 C 174.589844 363.425781 173.367188 362.199219 171.855469 362.199219 C 170.34375 362.199219 169.121094 363.425781 169.121094 364.933594 C 169.121094 366.445312 170.34375 367.667969 171.855469 367.667969 Z M 193.292969 367.964844 C 194.96875 367.964844 196.324219 366.609375 196.324219 364.933594 C 196.324219 363.261719 194.96875 361.902344 193.292969 361.902344 C 191.621094 361.902344 190.261719 363.261719 190.261719 364.933594 C 190.261719 366.609375 191.621094 367.964844 193.292969 367.964844 Z M 214.734375 368.203125 C 216.539062 368.203125 218.003906 366.738281 218.003906 364.933594 C 218.003906 363.125 216.539062 361.664062 214.734375 361.664062 C 212.925781 361.664062 211.464844 363.125 211.464844 364.933594 C 211.464844 366.738281 212.925781 368.203125 214.734375 368.203125 Z M 236.171875 368.324219 C 238.042969 368.324219 239.558594 366.804688 239.558594 364.933594 C 239.558594 363.0625 238.042969 361.546875 236.171875 361.546875 C 234.300781 361.546875 232.78125 363.0625 232.78125 364.933594 C 232.78125 366.804688 234.300781 368.324219 236.171875 368.324219 Z M 257.609375 366.660156 C 258.5625 366.660156 259.335938 365.886719 259.335938 364.933594 C 259.335938 363.980469 258.5625 363.210938 257.609375 363.210938 C 256.65625 363.210938 255.886719 363.980469 255.886719 364.933594 C 255.886719 365.886719 256.65625 366.660156 257.609375 366.660156 Z M 21.785156 386.492188 C 21.851562 386.492188 21.902344 386.4375 21.902344 386.371094 C 21.902344 386.308594 21.851562 386.253906 21.785156 386.253906 C 21.71875 386.253906 21.664062 386.308594 21.664062 386.371094 C 21.664062 386.4375 21.71875 386.492188 21.785156 386.492188 Z M 43.222656 386.609375 C 43.355469 386.609375 43.460938 386.503906 43.460938 386.371094 C 43.460938 386.242188 43.355469 386.136719 43.222656 386.136719 C 43.09375 386.136719 42.984375 386.242188 42.984375 386.371094 C 42.984375 386.503906 43.09375 386.609375 43.222656 386.609375 Z M 64.660156 386.789062 C 64.890625 386.789062 65.078125 386.601562 65.078125 386.371094 C 65.078125 386.144531 64.890625 385.957031 64.660156 385.957031 C 64.433594 385.957031 64.246094 386.144531 64.246094 386.371094 C 64.246094 386.601562 64.433594 386.789062 64.660156 386.789062 Z M 86.101562 387.027344 C 86.460938 387.027344 86.753906 386.734375 86.753906 386.371094 C 86.753906 386.011719 86.460938 385.71875 86.101562 385.71875 C 85.738281 385.71875 85.445312 386.011719 85.445312 386.371094 C 85.445312 386.734375 85.738281 387.027344 86.101562 387.027344 Z M 107.539062 387.324219 C 108.066406 387.324219 108.492188 386.898438 108.492188 386.371094 C 108.492188 385.847656 108.066406 385.421875 107.539062 385.421875 C 107.015625 385.421875 106.589844 385.847656 106.589844 386.371094 C 106.589844 386.898438 107.015625 387.324219 107.539062 387.324219 Z M 128.976562 387.621094 C 129.667969 387.621094 130.226562 387.0625 130.226562 386.371094 C 130.226562 385.683594 129.667969 385.125 128.976562 385.125 C 128.289062 385.125 127.730469 385.683594 127.730469 386.371094 C 127.730469 387.0625 128.289062 387.621094 128.976562 387.621094 Z M 150.417969 387.859375 C 151.238281 387.859375 151.902344 387.191406 151.902344 386.371094 C 151.902344 385.550781 151.238281 384.886719 150.417969 384.886719 C 149.597656 384.886719 148.929688 385.550781 148.929688 386.371094 C 148.929688 387.191406 149.597656 387.859375 150.417969 387.859375 Z M 171.855469 388.15625 C 172.839844 388.15625 173.640625 387.359375 173.640625 386.371094 C 173.640625 385.386719 172.839844 384.589844 171.855469 384.589844 C 170.871094 384.589844 170.070312 385.386719 170.070312 386.371094 C 170.070312 387.359375 170.871094 388.15625 171.855469 388.15625 Z M 193.292969 388.335938 C 194.378906 388.335938 195.257812 387.457031 195.257812 386.371094 C 195.257812 385.289062 194.378906 384.410156 193.292969 384.410156 C 192.210938 384.410156 191.332031 385.289062 191.332031 386.371094 C 191.332031 387.457031 192.210938 388.335938 193.292969 388.335938 Z M 214.734375 388.335938 C 215.816406 388.335938 216.695312 387.457031 216.695312 386.371094 C 216.695312 385.289062 215.816406 384.410156 214.734375 384.410156 C 213.648438 384.410156 212.769531 385.289062 212.769531 386.371094 C 212.769531 387.457031 213.648438 388.335938 214.734375 388.335938 Z M 236.171875 387.203125 C 236.632812 387.203125 237.003906 386.832031 237.003906 386.371094 C 237.003906 385.910156 236.632812 385.539062 236.171875 385.539062 C 235.710938 385.539062 235.339844 385.910156 235.339844 386.371094 C 235.339844 386.832031 235.710938 387.203125 236.171875 387.203125 Z M 43.222656 407.871094 C 43.257812 407.871094 43.28125 407.84375 43.28125 407.8125 C 43.28125 407.777344 43.257812 407.753906 43.222656 407.753906 C 43.191406 407.753906 43.164062 407.777344 43.164062 407.8125 C 43.164062 407.84375 43.191406 407.871094 43.222656 407.871094 Z M 64.660156 407.992188 C 64.761719 407.992188 64.839844 407.910156 64.839844 407.8125 C 64.839844 407.714844 64.761719 407.632812 64.660156 407.632812 C 64.5625 407.632812 64.484375 407.714844 64.484375 407.8125 C 64.484375 407.910156 64.5625 407.992188 64.660156 407.992188 Z M 86.101562 408.109375 C 86.265625 408.109375 86.398438 407.976562 86.398438 407.8125 C 86.398438 407.648438 86.265625 407.515625 86.101562 407.515625 C 85.9375 407.515625 85.804688 407.648438 85.804688 407.8125 C 85.804688 407.976562 85.9375 408.109375 86.101562 408.109375 Z M 107.539062 408.289062 C 107.800781 408.289062 108.015625 408.074219 108.015625 407.8125 C 108.015625 407.550781 107.800781 407.335938 107.539062 407.335938 C 107.277344 407.335938 107.0625 407.550781 107.0625 407.8125 C 107.0625 408.074219 107.277344 408.289062 107.539062 408.289062 Z M 128.976562 408.464844 C 129.339844 408.464844 129.632812 408.171875 129.632812 407.8125 C 129.632812 407.453125 129.339844 407.15625 128.976562 407.15625 C 128.617188 407.15625 128.324219 407.453125 128.324219 407.8125 C 128.324219 408.171875 128.617188 408.464844 128.976562 408.464844 Z M 150.417969 408.640625 C 150.875 408.640625 151.25 408.269531 151.25 407.8125 C 151.25 407.351562 150.875 406.976562 150.417969 406.976562 C 149.957031 406.976562 149.585938 407.351562 149.585938 407.8125 C 149.585938 408.269531 149.957031 408.640625 150.417969 408.640625 Z M 171.855469 408.640625 C 172.316406 408.640625 172.6875 408.269531 172.6875 407.8125 C 172.6875 407.351562 172.316406 406.976562 171.855469 406.976562 C 171.394531 406.976562 171.023438 407.351562 171.023438 407.8125 C 171.023438 408.269531 171.394531 408.640625 171.855469 408.640625 Z M 193.292969 408.402344 C 193.621094 408.402344 193.890625 408.140625 193.890625 407.8125 C 193.890625 407.484375 193.621094 407.214844 193.292969 407.214844 C 192.964844 407.214844 192.699219 407.484375 192.699219 407.8125 C 192.699219 408.140625 192.964844 408.402344 193.292969 408.402344 Z M 214.734375 407.929688 C 214.796875 407.929688 214.851562 407.878906 214.851562 407.8125 C 214.851562 407.746094 214.796875 407.691406 214.734375 407.691406 C 214.667969 407.691406 214.613281 407.746094 214.613281 407.8125 C 214.613281 407.878906 214.667969 407.929688 214.734375 407.929688 Z M 107.539062 429.308594 C 107.570312 429.308594 107.597656 429.28125 107.597656 429.25 C 107.597656 429.21875 107.574219 429.191406 107.539062 429.191406 C 107.507812 429.191406 107.480469 429.21875 107.480469 429.25 C 107.480469 429.28125 107.507812 429.308594 107.539062 429.308594 Z M 128.976562 429.308594 C 129.011719 429.308594 129.039062 429.28125 129.039062 429.25 C 129.039062 429.21875 129.011719 429.191406 128.976562 429.191406 C 128.945312 429.191406 128.917969 429.21875 128.917969 429.25 C 128.917969 429.28125 128.945312 429.308594 128.976562 429.308594 Z M 150.417969 429.308594 C 150.449219 429.308594 150.476562 429.28125 150.476562 429.25 C 150.476562 429.21875 150.449219 429.191406 150.417969 429.191406 C 150.382812 429.191406 150.355469 429.21875 150.355469 429.25 C 150.355469 429.28125 150.382812 429.308594 150.417969 429.308594 Z M 150.417969 429.308594 " fill-opacity="1" fill-rule="nonzero"/></g></svg>