<svg xmlns="http://www.w3.org/2000/svg" xmlns:xlink="http://www.w3.org/1999/xlink" width="547" zoomAndPan="magnify" viewBox="0 0 410.25 402.749983" height="537" preserveAspectRatio="xMidYMid meet" version="1.0"><defs><clipPath id="75827505c2"><path d="M 47 122 L 396 122 L 396 330 L 47 330 Z M 47 122 " clip-rule="nonzero"/></clipPath><clipPath id="3fd16a2f41"><path d="M 164.285156 0.242188 L 409.164062 211.496094 L 244.859375 401.957031 L -0.0195312 190.703125 Z M 164.285156 0.242188 " clip-rule="nonzero"/></clipPath><clipPath id="2cf0501b8b"><path d="M 164.285156 0.242188 L 409.164062 211.496094 L 244.859375 401.957031 L -0.0195312 190.703125 Z M 164.285156 0.242188 " clip-rule="nonzero"/></clipPath><clipPath id="74530761fd"><path d="M 164.285156 0.242188 L 409.203125 211.527344 L 244.886719 401.996094 L -0.0273438 190.710938 Z M 164.285156 0.242188 " clip-rule="nonzero"/></clipPath><clipPath id="6af7633ba7"><path d="M 164.285156 0.242188 L 409.164062 211.492188 L 244.882812 401.925781 L 0.00390625 190.671875 Z M 164.285156 0.242188 " clip-rule="nonzero"/></clipPath></defs><g clip-path="url(#75827505c2)"><g clip-path="url(#3fd16a2f41)"><g clip-path="url(#2cf0501b8b)"><g clip-path="url(#74530761fd)"><g clip-path="url(#6af7633ba7)"><path fill="#ffffff" d="M 395.226562 199.539062 C 395.246094 199.519531 395.277344 199.515625 395.296875 199.535156 C 395.320312 199.550781 395.320312 199.582031 395.304688 199.605469 C 395.285156 199.625 395.253906 199.625 395.234375 199.609375 C 395.210938 199.589844 395.210938 199.558594 395.226562 199.539062 Z M 356.402344 189.769531 C 356.421875 189.789062 356.453125 189.785156 356.472656 189.765625 C 356.492188 189.742188 356.488281 189.710938 356.46875 189.695312 C 356.445312 189.675781 356.414062 189.679688 356.398438 189.699219 C 356.378906 189.71875 356.382812 189.75 356.402344 189.769531 Z M 369.933594 201.507812 C 369.976562 201.546875 370.039062 201.539062 370.074219 201.5 C 370.109375 201.457031 370.105469 201.394531 370.0625 201.359375 C 370.023438 201.324219 369.960938 201.328125 369.925781 201.371094 C 369.886719 201.410156 369.894531 201.472656 369.933594 201.507812 Z M 383.5 213.210938 C 383.539062 213.246094 383.601562 213.242188 383.640625 213.199219 C 383.675781 213.160156 383.671875 213.097656 383.628906 213.0625 C 383.585938 213.023438 383.523438 213.03125 383.488281 213.070312 C 383.453125 213.113281 383.457031 213.175781 383.5 213.210938 Z M 331.101562 191.671875 C 331.144531 191.707031 331.207031 191.703125 331.242188 191.660156 C 331.277344 191.617188 331.273438 191.554688 331.234375 191.519531 C 331.191406 191.484375 331.128906 191.488281 331.09375 191.53125 C 331.058594 191.570312 331.0625 191.632812 331.101562 191.671875 Z M 344.636719 203.410156 C 344.699219 203.464844 344.792969 203.457031 344.847656 203.394531 C 344.898438 203.332031 344.890625 203.238281 344.832031 203.183594 C 344.769531 203.128906 344.671875 203.136719 344.621094 203.199219 C 344.566406 203.261719 344.574219 203.355469 344.636719 203.410156 Z M 358.199219 215.113281 C 358.261719 215.164062 358.355469 215.160156 358.410156 215.097656 C 358.464844 215.035156 358.457031 214.941406 358.394531 214.886719 C 358.332031 214.832031 358.238281 214.839844 358.183594 214.902344 C 358.128906 214.964844 358.136719 215.058594 358.199219 215.113281 Z M 371.699219 226.890625 C 371.804688 226.976562 371.957031 226.964844 372.046875 226.863281 C 372.136719 226.757812 372.128906 226.601562 372.023438 226.511719 C 371.921875 226.421875 371.761719 226.433594 371.671875 226.539062 C 371.585938 226.640625 371.597656 226.800781 371.699219 226.890625 Z M 385.363281 238.476562 C 385.402344 238.511719 385.464844 238.507812 385.5 238.46875 C 385.539062 238.425781 385.53125 238.363281 385.492188 238.328125 C 385.449219 238.292969 385.386719 238.296875 385.351562 238.335938 C 385.316406 238.378906 385.320312 238.441406 385.363281 238.476562 Z M 319.335938 205.308594 C 319.417969 205.382812 319.546875 205.371094 319.617188 205.289062 C 319.6875 205.207031 319.679688 205.082031 319.597656 205.007812 C 319.511719 204.9375 319.386719 204.945312 319.316406 205.027344 C 319.242188 205.113281 319.253906 205.238281 319.335938 205.308594 Z M 332.867188 217.050781 C 332.972656 217.140625 333.128906 217.125 333.21875 217.023438 C 333.308594 216.917969 333.296875 216.761719 333.191406 216.671875 C 333.089844 216.585938 332.933594 216.59375 332.84375 216.699219 C 332.753906 216.800781 332.765625 216.960938 332.867188 217.050781 Z M 346.402344 228.789062 C 346.523438 228.894531 346.714844 228.882812 346.820312 228.757812 C 346.929688 228.632812 346.914062 228.445312 346.789062 228.335938 C 346.664062 228.230469 346.476562 228.242188 346.371094 228.367188 C 346.261719 228.492188 346.277344 228.683594 346.402344 228.789062 Z M 359.902344 240.566406 C 360.066406 240.710938 360.316406 240.691406 360.460938 240.523438 C 360.601562 240.359375 360.585938 240.109375 360.417969 239.964844 C 360.253906 239.820312 360 239.839844 359.859375 240.003906 C 359.714844 240.171875 359.734375 240.421875 359.902344 240.566406 Z M 373.59375 252.117188 C 373.679688 252.1875 373.804688 252.179688 373.875 252.097656 C 373.945312 252.015625 373.9375 251.886719 373.855469 251.816406 C 373.773438 251.746094 373.644531 251.753906 373.574219 251.835938 C 373.503906 251.921875 373.511719 252.046875 373.59375 252.117188 Z M 294.167969 207.058594 C 294.1875 207.078125 294.21875 207.074219 294.238281 207.054688 C 294.253906 207.03125 294.253906 207 294.230469 206.984375 C 294.210938 206.964844 294.179688 206.96875 294.160156 206.988281 C 294.144531 207.011719 294.144531 207.042969 294.167969 207.058594 Z M 307.503906 219.023438 C 307.671875 219.167969 307.921875 219.148438 308.0625 218.984375 C 308.207031 218.816406 308.191406 218.566406 308.023438 218.421875 C 307.859375 218.28125 307.605469 218.296875 307.460938 218.464844 C 307.320312 218.628906 307.339844 218.882812 307.503906 219.023438 Z M 321.035156 230.765625 C 321.222656 230.925781 321.503906 230.902344 321.667969 230.71875 C 321.828125 230.53125 321.808594 230.25 321.621094 230.085938 C 321.433594 229.925781 321.152344 229.945312 320.988281 230.132812 C 320.828125 230.320312 320.847656 230.601562 321.035156 230.765625 Z M 334.535156 242.542969 C 334.765625 242.738281 335.109375 242.710938 335.304688 242.484375 C 335.503906 242.253906 335.476562 241.910156 335.25 241.714844 C 335.019531 241.515625 334.675781 241.542969 334.480469 241.769531 C 334.28125 242 334.308594 242.34375 334.535156 242.542969 Z M 348.035156 254.320312 C 348.304688 254.550781 348.714844 254.519531 348.945312 254.25 C 349.179688 253.980469 349.148438 253.574219 348.878906 253.339844 C 348.609375 253.105469 348.199219 253.136719 347.96875 253.40625 C 347.734375 253.675781 347.765625 254.085938 348.035156 254.320312 Z M 361.828125 265.757812 C 361.953125 265.863281 362.140625 265.851562 362.25 265.726562 C 362.355469 265.601562 362.34375 265.414062 362.21875 265.304688 C 362.09375 265.199219 361.90625 265.210938 361.796875 265.335938 C 361.6875 265.460938 361.703125 265.648438 361.828125 265.757812 Z M 282.367188 220.738281 C 282.449219 220.808594 282.578125 220.800781 282.648438 220.714844 C 282.71875 220.632812 282.710938 220.507812 282.628906 220.4375 C 282.542969 220.363281 282.417969 220.375 282.347656 220.457031 C 282.273438 220.539062 282.285156 220.664062 282.367188 220.738281 Z M 295.640625 232.777344 C 295.910156 233.011719 296.316406 232.980469 296.550781 232.710938 C 296.78125 232.441406 296.753906 232.03125 296.484375 231.800781 C 296.210938 231.566406 295.804688 231.597656 295.574219 231.867188 C 295.339844 232.136719 295.371094 232.542969 295.640625 232.777344 Z M 309.171875 244.515625 C 309.460938 244.765625 309.902344 244.734375 310.152344 244.445312 C 310.402344 244.152344 310.371094 243.714844 310.082031 243.464844 C 309.789062 243.210938 309.351562 243.246094 309.097656 243.535156 C 308.847656 243.828125 308.878906 244.265625 309.171875 244.515625 Z M 322.671875 256.292969 C 323.003906 256.582031 323.503906 256.542969 323.792969 256.210938 C 324.078125 255.878906 324.042969 255.375 323.710938 255.089844 C 323.378906 254.804688 322.875 254.839844 322.589844 255.171875 C 322.300781 255.503906 322.339844 256.007812 322.671875 256.292969 Z M 336.171875 268.070312 C 336.546875 268.394531 337.109375 268.351562 337.433594 267.976562 C 337.753906 267.605469 337.714844 267.039062 337.339844 266.71875 C 336.964844 266.394531 336.402344 266.433594 336.078125 266.808594 C 335.753906 267.183594 335.796875 267.746094 336.171875 268.070312 Z M 350.0625 279.398438 C 350.226562 279.539062 350.476562 279.519531 350.621094 279.355469 C 350.765625 279.1875 350.746094 278.9375 350.582031 278.796875 C 350.414062 278.652344 350.164062 278.671875 350.019531 278.835938 C 349.875 279.003906 349.894531 279.253906 350.0625 279.398438 Z M 270.375 234.640625 C 270.644531 234.871094 271.050781 234.84375 271.285156 234.574219 C 271.515625 234.300781 271.488281 233.894531 271.21875 233.660156 C 270.945312 233.429688 270.539062 233.457031 270.304688 233.730469 C 270.074219 234 270.105469 234.40625 270.375 234.640625 Z M 283.710938 246.605469 C 284.125 246.964844 284.753906 246.917969 285.113281 246.5 C 285.46875 246.085938 285.425781 245.457031 285.007812 245.101562 C 284.59375 244.742188 283.964844 244.789062 283.605469 245.203125 C 283.25 245.617188 283.296875 246.246094 283.710938 246.605469 Z M 297.242188 258.34375 C 297.679688 258.71875 298.339844 258.671875 298.714844 258.234375 C 299.089844 257.800781 299.042969 257.140625 298.605469 256.765625 C 298.167969 256.386719 297.511719 256.4375 297.132812 256.871094 C 296.757812 257.308594 296.804688 257.96875 297.242188 258.34375 Z M 310.777344 270.085938 C 311.230469 270.476562 311.921875 270.425781 312.316406 269.96875 C 312.710938 269.515625 312.660156 268.824219 312.203125 268.429688 C 311.746094 268.035156 311.058594 268.085938 310.664062 268.542969 C 310.269531 269 310.316406 269.691406 310.777344 270.085938 Z M 324.242188 281.898438 C 324.761719 282.347656 325.546875 282.289062 325.996094 281.769531 C 326.441406 281.25 326.382812 280.464844 325.867188 280.019531 C 325.34375 279.570312 324.5625 279.628906 324.113281 280.148438 C 323.667969 280.667969 323.722656 281.449219 324.242188 281.898438 Z M 338.425781 292.886719 C 338.546875 292.992188 338.738281 292.980469 338.84375 292.855469 C 338.953125 292.730469 338.9375 292.542969 338.8125 292.433594 C 338.6875 292.328125 338.5 292.339844 338.394531 292.464844 C 338.285156 292.589844 338.300781 292.78125 338.425781 292.886719 Z M 245.367188 236.203125 C 245.46875 236.292969 245.628906 236.28125 245.714844 236.175781 C 245.804688 236.070312 245.792969 235.914062 245.691406 235.824219 C 245.585938 235.734375 245.429688 235.746094 245.339844 235.851562 C 245.25 235.957031 245.261719 236.113281 245.367188 236.203125 Z M 258.28125 248.65625 C 258.800781 249.105469 259.585938 249.046875 260.035156 248.527344 C 260.480469 248.007812 260.421875 247.222656 259.90625 246.773438 C 259.386719 246.328125 258.601562 246.386719 258.152344 246.90625 C 257.707031 247.421875 257.761719 248.207031 258.28125 248.65625 Z M 271.78125 260.433594 C 272.34375 260.917969 273.191406 260.855469 273.675781 260.292969 C 274.15625 259.734375 274.097656 258.886719 273.535156 258.402344 C 272.972656 257.917969 272.128906 257.980469 271.644531 258.542969 C 271.160156 259.101562 271.222656 259.949219 271.78125 260.433594 Z M 285.316406 272.171875 C 285.894531 272.671875 286.773438 272.609375 287.277344 272.027344 C 287.777344 271.445312 287.710938 270.566406 287.132812 270.066406 C 286.550781 269.566406 285.671875 269.628906 285.171875 270.210938 C 284.667969 270.792969 284.730469 271.671875 285.316406 272.171875 Z M 298.8125 283.949219 C 299.4375 284.488281 300.378906 284.417969 300.917969 283.796875 C 301.453125 283.171875 301.386719 282.230469 300.761719 281.691406 C 300.136719 281.15625 299.195312 281.226562 298.660156 281.847656 C 298.121094 282.472656 298.191406 283.414062 298.8125 283.949219 Z M 312.378906 295.652344 C 313.003906 296.191406 313.941406 296.121094 314.480469 295.496094 C 315.019531 294.875 314.949219 293.933594 314.324219 293.394531 C 313.703125 292.855469 312.761719 292.925781 312.222656 293.550781 C 311.6875 294.171875 311.753906 295.113281 312.378906 295.652344 Z M 326.851562 306.300781 C 326.894531 306.335938 326.957031 306.332031 326.992188 306.289062 C 327.027344 306.25 327.023438 306.1875 326.980469 306.152344 C 326.941406 306.113281 326.878906 306.121094 326.839844 306.160156 C 326.804688 306.203125 326.8125 306.265625 326.851562 306.300781 Z M 220.164062 237.988281 C 220.226562 238.042969 220.320312 238.035156 220.375 237.972656 C 220.429688 237.910156 220.421875 237.816406 220.359375 237.761719 C 220.296875 237.710938 220.203125 237.714844 220.148438 237.777344 C 220.09375 237.839844 220.101562 237.933594 220.164062 237.988281 Z M 232.886719 250.667969 C 233.488281 251.1875 234.398438 251.121094 234.917969 250.519531 C 235.4375 249.917969 235.371094 249.007812 234.769531 248.488281 C 234.164062 247.96875 233.253906 248.035156 232.734375 248.636719 C 232.214844 249.238281 232.285156 250.148438 232.886719 250.667969 Z M 246.253906 262.597656 C 246.984375 263.222656 248.082031 263.144531 248.707031 262.414062 C 249.335938 261.6875 249.253906 260.589844 248.527344 259.964844 C 247.800781 259.335938 246.703125 259.417969 246.074219 260.144531 C 245.449219 260.871094 245.527344 261.96875 246.253906 262.597656 Z M 259.789062 274.335938 C 260.535156 274.980469 261.664062 274.898438 262.3125 274.152344 C 262.957031 273.402344 262.871094 272.273438 262.125 271.628906 C 261.375 270.984375 260.246094 271.066406 259.601562 271.8125 C 258.957031 272.5625 259.039062 273.691406 259.789062 274.335938 Z M 273.320312 286.078125 C 274.089844 286.738281 275.25 286.652344 275.910156 285.882812 C 276.574219 285.117188 276.492188 283.957031 275.722656 283.292969 C 274.953125 282.628906 273.792969 282.714844 273.128906 283.484375 C 272.464844 284.253906 272.550781 285.414062 273.320312 286.078125 Z M 286.820312 297.851562 C 287.628906 298.550781 288.851562 298.460938 289.550781 297.652344 C 290.25 296.839844 290.160156 295.617188 289.351562 294.917969 C 288.539062 294.222656 287.316406 294.308594 286.617188 295.121094 C 285.917969 295.929688 286.011719 297.15625 286.820312 297.851562 Z M 300.871094 308.992188 C 301.367188 309.421875 302.121094 309.367188 302.554688 308.867188 C 302.984375 308.367188 302.925781 307.613281 302.429688 307.183594 C 301.929688 306.753906 301.179688 306.8125 300.746094 307.308594 C 300.316406 307.808594 300.371094 308.558594 300.871094 308.992188 Z M 58.992188 123.132812 C 59.222656 123.328125 59.566406 123.304688 59.761719 123.074219 C 59.960938 122.847656 59.933594 122.503906 59.707031 122.304688 C 59.476562 122.109375 59.132812 122.132812 58.9375 122.363281 C 58.738281 122.589844 58.765625 122.9375 58.992188 123.132812 Z M 72.753906 134.609375 C 72.855469 134.699219 73.011719 134.6875 73.101562 134.582031 C 73.191406 134.480469 73.179688 134.324219 73.078125 134.234375 C 72.972656 134.144531 72.816406 134.15625 72.726562 134.257812 C 72.636719 134.363281 72.648438 134.519531 72.753906 134.609375 Z M 194.832031 239.925781 C 194.9375 240.015625 195.09375 240.003906 195.183594 239.902344 C 195.273438 239.796875 195.261719 239.640625 195.15625 239.550781 C 195.054688 239.460938 194.898438 239.472656 194.808594 239.578125 C 194.71875 239.679688 194.730469 239.835938 194.832031 239.925781 Z M 207.390625 252.792969 C 208.140625 253.441406 209.269531 253.355469 209.914062 252.609375 C 210.558594 251.859375 210.476562 250.730469 209.730469 250.085938 C 208.980469 249.441406 207.851562 249.523438 207.207031 250.273438 C 206.5625 251.019531 206.644531 252.148438 207.390625 252.792969 Z M 220.664062 264.835938 C 221.597656 265.640625 223.011719 265.539062 223.816406 264.601562 C 224.625 263.667969 224.519531 262.257812 223.585938 261.449219 C 222.648438 260.644531 221.238281 260.746094 220.433594 261.683594 C 219.625 262.617188 219.730469 264.027344 220.664062 264.835938 Z M 234.230469 276.535156 C 235.164062 277.34375 236.574219 277.238281 237.382812 276.304688 C 238.1875 275.371094 238.085938 273.957031 237.148438 273.152344 C 236.214844 272.34375 234.804688 272.449219 233.996094 273.382812 C 233.191406 274.320312 233.292969 275.730469 234.230469 276.535156 Z M 247.792969 288.238281 C 248.730469 289.046875 250.140625 288.941406 250.945312 288.007812 C 251.753906 287.070312 251.648438 285.660156 250.714844 284.855469 C 249.777344 284.046875 248.367188 284.152344 247.5625 285.085938 C 246.753906 286.019531 246.859375 287.433594 247.792969 288.238281 Z M 261.292969 300.015625 C 262.269531 300.859375 263.746094 300.75 264.585938 299.773438 C 265.429688 298.796875 265.320312 297.324219 264.34375 296.480469 C 263.367188 295.636719 261.894531 295.746094 261.050781 296.722656 C 260.207031 297.699219 260.316406 299.171875 261.292969 300.015625 Z M 274.925781 311.644531 C 275.859375 312.449219 277.269531 312.34375 278.074219 311.410156 C 278.882812 310.476562 278.777344 309.0625 277.84375 308.257812 C 276.90625 307.449219 275.496094 307.554688 274.691406 308.488281 C 273.882812 309.425781 273.988281 310.835938 274.925781 311.644531 Z M 289.753906 321.878906 C 289.878906 321.984375 290.066406 321.972656 290.171875 321.847656 C 290.28125 321.722656 290.269531 321.535156 290.144531 321.425781 C 290.015625 321.316406 289.832031 321.332031 289.722656 321.457031 C 289.613281 321.582031 289.628906 321.769531 289.753906 321.878906 Z M 47.519531 136.433594 C 47.601562 136.503906 47.726562 136.496094 47.796875 136.414062 C 47.871094 136.332031 47.859375 136.203125 47.777344 136.132812 C 47.695312 136.0625 47.570312 136.070312 47.496094 136.152344 C 47.425781 136.238281 47.433594 136.363281 47.519531 136.433594 Z M 59.296875 150.203125 C 60.523438 151.261719 62.375 151.125 63.433594 149.898438 C 64.488281 148.675781 64.351562 146.824219 63.128906 145.765625 C 61.902344 144.707031 60.050781 144.84375 58.992188 146.070312 C 57.9375 147.296875 58.070312 149.148438 59.296875 150.203125 Z M 73.707031 160.929688 C 74.390625 161.519531 75.425781 161.445312 76.019531 160.757812 C 76.609375 160.074219 76.535156 159.039062 75.847656 158.445312 C 75.164062 157.855469 74.128906 157.929688 73.535156 158.617188 C 72.945312 159.300781 73.019531 160.335938 73.707031 160.929688 Z M 88.246094 171.503906 C 88.304688 171.554688 88.402344 171.550781 88.453125 171.488281 C 88.507812 171.425781 88.5 171.332031 88.4375 171.277344 C 88.375 171.222656 88.28125 171.230469 88.230469 171.292969 C 88.175781 171.355469 88.183594 171.449219 88.246094 171.503906 Z M 156.035156 230.050781 C 156.117188 230.121094 156.242188 230.113281 156.316406 230.027344 C 156.386719 229.945312 156.378906 229.820312 156.292969 229.75 C 156.210938 229.675781 156.085938 229.6875 156.015625 229.769531 C 155.941406 229.851562 155.953125 229.976562 156.035156 230.050781 Z M 168.851562 242.617188 C 169.414062 243.101562 170.261719 243.039062 170.746094 242.476562 C 171.230469 241.917969 171.167969 241.070312 170.605469 240.585938 C 170.042969 240.101562 169.199219 240.164062 168.714844 240.726562 C 168.230469 241.285156 168.292969 242.132812 168.851562 242.617188 Z M 181.542969 255.335938 C 182.664062 256.300781 184.355469 256.175781 185.324219 255.054688 C 186.292969 253.933594 186.167969 252.238281 185.046875 251.273438 C 183.925781 250.304688 182.230469 250.429688 181.261719 251.550781 C 180.292969 252.671875 180.417969 254.367188 181.542969 255.335938 Z M 195.007812 267.148438 C 196.191406 268.171875 197.980469 268.039062 199.003906 266.855469 C 200.023438 265.671875 199.890625 263.882812 198.707031 262.859375 C 197.523438 261.839844 195.734375 261.972656 194.714844 263.15625 C 193.691406 264.339844 193.824219 266.128906 195.007812 267.148438 Z M 208.605469 278.8125 C 209.769531 279.816406 211.527344 279.6875 212.53125 278.523438 C 213.53125 277.359375 213.402344 275.605469 212.242188 274.601562 C 211.078125 273.597656 209.320312 273.726562 208.316406 274.890625 C 207.3125 276.054688 207.441406 277.808594 208.605469 278.8125 Z M 222.171875 290.515625 C 223.332031 291.519531 225.089844 291.390625 226.09375 290.226562 C 227.097656 289.0625 226.96875 287.304688 225.804688 286.300781 C 224.640625 285.296875 222.886719 285.429688 221.882812 286.589844 C 220.878906 287.753906 221.007812 289.511719 222.171875 290.515625 Z M 235.703125 302.253906 C 236.886719 303.277344 238.675781 303.144531 239.695312 301.960938 C 240.71875 300.777344 240.585938 298.988281 239.402344 297.96875 C 238.21875 296.945312 236.429688 297.078125 235.40625 298.261719 C 234.386719 299.445312 234.519531 301.234375 235.703125 302.253906 Z M 249.269531 313.957031 C 250.449219 314.976562 252.238281 314.847656 253.261719 313.664062 C 254.28125 312.480469 254.148438 310.691406 252.96875 309.667969 C 251.78125 308.648438 249.996094 308.78125 248.972656 309.964844 C 247.953125 311.148438 248.082031 312.933594 249.269531 313.957031 Z M 264 324.304688 C 264.4375 324.679688 265.09375 324.632812 265.472656 324.195312 C 265.847656 323.761719 265.800781 323.101562 265.363281 322.726562 C 264.925781 322.347656 264.265625 322.394531 263.890625 322.832031 C 263.515625 323.269531 263.5625 323.929688 264 324.304688 Z M 49.21875 161.890625 C 49.40625 162.050781 49.6875 162.03125 49.847656 161.84375 C 50.011719 161.65625 49.988281 161.375 49.800781 161.210938 C 49.617188 161.050781 49.332031 161.070312 49.171875 161.257812 C 49.011719 161.445312 49.03125 161.726562 49.21875 161.890625 Z M 60.511719 176.222656 C 62.152344 177.640625 64.628906 177.457031 66.046875 175.816406 C 67.460938 174.175781 67.28125 171.695312 65.636719 170.28125 C 63.996094 168.863281 61.519531 169.046875 60.101562 170.6875 C 58.6875 172.328125 58.871094 174.808594 60.511719 176.222656 Z M 73.6875 188.378906 C 75.578125 190.007812 78.429688 189.796875 80.0625 187.90625 C 81.691406 186.015625 81.484375 183.164062 79.59375 181.53125 C 77.703125 179.902344 74.847656 180.109375 73.214844 182 C 71.585938 183.890625 71.796875 186.746094 73.6875 188.378906 Z M 87.933594 199.289062 C 89.386719 200.542969 91.582031 200.382812 92.835938 198.925781 C 94.089844 197.472656 93.929688 195.277344 92.476562 194.023438 C 91.019531 192.769531 88.824219 192.929688 87.570312 194.382812 C 86.316406 195.839844 86.476562 198.035156 87.933594 199.289062 Z M 101.984375 210.425781 C 103.125 211.414062 104.851562 211.285156 105.835938 210.144531 C 106.824219 209 106.695312 207.273438 105.554688 206.289062 C 104.410156 205.304688 102.6875 205.429688 101.699219 206.574219 C 100.714844 207.714844 100.839844 209.441406 101.984375 210.425781 Z M 115.644531 222.015625 C 116.726562 222.949219 118.355469 222.828125 119.289062 221.746094 C 120.222656 220.667969 120.101562 219.035156 119.019531 218.105469 C 117.941406 217.171875 116.308594 217.292969 115.378906 218.371094 C 114.445312 219.453125 114.566406 221.085938 115.644531 222.015625 Z M 128.917969 234.054688 C 130.1875 235.148438 132.097656 235.007812 133.191406 233.742188 C 134.285156 232.472656 134.144531 230.5625 132.878906 229.46875 C 131.609375 228.375 129.695312 228.515625 128.601562 229.78125 C 127.511719 231.050781 127.652344 232.964844 128.917969 234.054688 Z M 142.09375 246.210938 C 143.609375 247.519531 145.898438 247.347656 147.207031 245.832031 C 148.515625 244.316406 148.347656 242.027344 146.832031 240.71875 C 145.316406 239.410156 143.023438 239.578125 141.714844 241.09375 C 140.410156 242.613281 140.578125 244.902344 142.09375 246.210938 Z M 155.59375 257.988281 C 157.152344 259.332031 159.503906 259.15625 160.847656 257.597656 C 162.191406 256.042969 162.019531 253.6875 160.460938 252.34375 C 158.902344 251 156.550781 251.175781 155.207031 252.730469 C 153.863281 254.289062 154.035156 256.644531 155.59375 257.988281 Z M 169.253906 269.574219 C 170.75 270.867188 173.007812 270.699219 174.300781 269.203125 C 175.589844 267.707031 175.421875 265.449219 173.929688 264.160156 C 172.433594 262.871094 170.175781 263.035156 168.882812 264.53125 C 167.59375 266.027344 167.757812 268.285156 169.253906 269.574219 Z M 182.886719 281.203125 C 184.339844 282.457031 186.535156 282.296875 187.789062 280.839844 C 189.042969 279.386719 188.882812 277.191406 187.429688 275.9375 C 185.972656 274.683594 183.777344 274.84375 182.523438 276.296875 C 181.269531 277.753906 181.429688 279.949219 182.886719 281.203125 Z M 196.480469 292.867188 C 197.914062 294.101562 200.078125 293.945312 201.316406 292.511719 C 202.554688 291.078125 202.394531 288.914062 200.960938 287.675781 C 199.527344 286.441406 197.363281 286.597656 196.125 288.03125 C 194.890625 289.464844 195.046875 291.628906 196.480469 292.867188 Z M 210.046875 304.570312 C 211.480469 305.804688 213.644531 305.644531 214.882812 304.210938 C 216.117188 302.777344 215.957031 300.613281 214.523438 299.378906 C 213.089844 298.140625 210.925781 298.300781 209.691406 299.734375 C 208.453125 301.167969 208.613281 303.332031 210.046875 304.570312 Z M 223.644531 316.234375 C 225.054688 317.449219 227.1875 317.292969 228.40625 315.882812 C 229.625 314.46875 229.46875 312.335938 228.058594 311.117188 C 226.644531 309.898438 224.511719 310.054688 223.292969 311.46875 C 222.074219 312.882812 222.230469 315.015625 223.644531 316.234375 Z M 238.410156 326.542969 C 239.050781 327.097656 240.027344 327.027344 240.582031 326.382812 C 241.136719 325.738281 241.0625 324.765625 240.421875 324.210938 C 239.777344 323.65625 238.804688 323.726562 238.25 324.371094 C 237.695312 325.015625 237.765625 325.988281 238.410156 326.542969 Z M 51.210938 187.003906 C 51.316406 187.09375 51.472656 187.082031 51.5625 186.980469 C 51.652344 186.875 51.640625 186.71875 51.535156 186.628906 C 51.429688 186.539062 51.273438 186.550781 51.183594 186.65625 C 51.09375 186.757812 51.105469 186.914062 51.210938 187.003906 Z M 62.992188 200.777344 C 64.238281 201.851562 66.117188 201.710938 67.195312 200.464844 C 68.269531 199.21875 68.132812 197.335938 66.882812 196.261719 C 65.636719 195.1875 63.757812 195.324219 62.679688 196.570312 C 61.605469 197.816406 61.746094 199.699219 62.992188 200.777344 Z M 75.289062 213.945312 C 77.347656 215.71875 80.453125 215.488281 82.226562 213.433594 C 84 211.375 83.773438 208.269531 81.714844 206.496094 C 79.65625 204.722656 76.554688 204.953125 74.777344 207.007812 C 73.003906 209.066406 73.234375 212.171875 75.289062 213.945312 Z M 88.757812 225.757812 C 90.875 227.585938 94.074219 227.351562 95.902344 225.230469 C 97.730469 223.113281 97.496094 219.914062 95.375 218.085938 C 93.257812 216.257812 90.058594 216.492188 88.230469 218.613281 C 86.402344 220.730469 86.636719 223.929688 88.757812 225.757812 Z M 102.355469 237.421875 C 104.453125 239.234375 107.621094 239 109.429688 236.902344 C 111.242188 234.804688 111.007812 231.636719 108.910156 229.824219 C 106.8125 228.015625 103.644531 228.25 101.832031 230.347656 C 100.023438 232.445312 100.257812 235.613281 102.355469 237.421875 Z M 116.046875 248.976562 C 118.0625 250.714844 121.105469 250.488281 122.84375 248.472656 C 124.582031 246.457031 124.359375 243.417969 122.34375 241.679688 C 120.328125 239.941406 117.285156 240.164062 115.546875 242.179688 C 113.808594 244.195312 114.035156 247.238281 116.046875 248.976562 Z M 129.742188 260.527344 C 131.675781 262.191406 134.59375 261.976562 136.257812 260.046875 C 137.925781 258.113281 137.710938 255.195312 135.777344 253.53125 C 133.847656 251.863281 130.929688 252.078125 129.261719 254.011719 C 127.597656 255.941406 127.8125 258.859375 129.742188 260.527344 Z M 143.4375 272.078125 C 145.285156 273.671875 148.078125 273.464844 149.671875 271.617188 C 151.269531 269.769531 151.0625 266.976562 149.214844 265.382812 C 147.363281 263.789062 144.574219 263.992188 142.976562 265.84375 C 141.382812 267.691406 141.589844 270.484375 143.4375 272.078125 Z M 157.097656 283.667969 C 158.886719 285.207031 161.582031 285.007812 163.125 283.222656 C 164.667969 281.4375 164.46875 278.738281 162.679688 277.195312 C 160.894531 275.65625 158.195312 275.855469 156.65625 277.640625 C 155.113281 279.429688 155.3125 282.125 157.097656 283.667969 Z M 170.730469 295.292969 C 172.472656 296.800781 175.109375 296.605469 176.613281 294.859375 C 178.121094 293.113281 177.925781 290.480469 176.179688 288.972656 C 174.433594 287.46875 171.800781 287.664062 170.296875 289.40625 C 168.789062 291.152344 168.984375 293.789062 170.730469 295.292969 Z M 184.324219 306.957031 C 186.050781 308.445312 188.652344 308.253906 190.140625 306.527344 C 191.628906 304.804688 191.4375 302.203125 189.710938 300.714844 C 187.988281 299.226562 185.386719 299.417969 183.898438 301.144531 C 182.410156 302.867188 182.601562 305.46875 184.324219 306.957031 Z M 198.246094 318.246094 C 199.742188 319.535156 202 319.371094 203.292969 317.875 C 204.582031 316.378906 204.414062 314.121094 202.921875 312.828125 C 201.425781 311.539062 199.167969 311.707031 197.875 313.203125 C 196.585938 314.695312 196.75 316.957031 198.246094 318.246094 Z M 213.371094 328.144531 C 213.867188 328.570312 214.621094 328.515625 215.050781 328.019531 C 215.480469 327.519531 215.425781 326.765625 214.929688 326.335938 C 214.429688 325.90625 213.675781 325.960938 213.246094 326.460938 C 212.816406 326.957031 212.871094 327.710938 213.371094 328.144531 Z M 66.183594 224.5 C 66.578125 224.839844 67.175781 224.796875 67.515625 224.402344 C 67.855469 224.007812 67.8125 223.410156 67.417969 223.070312 C 67.023438 222.730469 66.425781 222.773438 66.085938 223.167969 C 65.746094 223.5625 65.789062 224.160156 66.183594 224.5 Z M 78.449219 237.707031 C 79.675781 238.761719 81.527344 238.628906 82.585938 237.402344 C 83.640625 236.175781 83.503906 234.324219 82.28125 233.269531 C 81.054688 232.210938 79.203125 232.347656 78.144531 233.574219 C 77.089844 234.796875 77.226562 236.648438 78.449219 237.707031 Z M 91.042969 250.535156 C 92.890625 252.132812 95.683594 251.925781 97.277344 250.078125 C 98.871094 248.226562 98.667969 245.4375 96.816406 243.839844 C 94.96875 242.246094 92.175781 242.453125 90.582031 244.300781 C 88.988281 246.148438 89.191406 248.941406 91.042969 250.535156 Z M 104.28125 262.613281 C 106.339844 264.390625 109.445312 264.160156 111.21875 262.101562 C 112.992188 260.046875 112.761719 256.941406 110.707031 255.167969 C 108.648438 253.394531 105.542969 253.621094 103.769531 255.679688 C 101.996094 257.734375 102.226562 260.839844 104.28125 262.613281 Z M 117.75 274.429688 C 119.867188 276.257812 123.066406 276.023438 124.894531 273.902344 C 126.722656 271.785156 126.488281 268.585938 124.367188 266.757812 C 122.25 264.929688 119.050781 265.164062 117.222656 267.28125 C 115.394531 269.402344 115.628906 272.601562 117.75 274.429688 Z M 131.347656 286.09375 C 133.445312 287.902344 136.613281 287.671875 138.421875 285.570312 C 140.234375 283.472656 140 280.304688 137.902344 278.496094 C 135.800781 276.6875 132.632812 276.917969 130.824219 279.015625 C 129.015625 281.117188 129.246094 284.285156 131.347656 286.09375 Z M 145.136719 297.53125 C 147.089844 299.21875 150.039062 299 151.722656 297.046875 C 153.410156 295.09375 153.191406 292.144531 151.238281 290.460938 C 149.285156 288.777344 146.335938 288.992188 144.652344 290.945312 C 142.96875 292.898438 143.183594 295.847656 145.136719 297.53125 Z M 159.320312 308.519531 C 160.878906 309.863281 163.230469 309.691406 164.574219 308.132812 C 165.917969 306.574219 165.746094 304.222656 164.1875 302.878906 C 162.628906 301.535156 160.277344 301.707031 158.929688 303.265625 C 157.585938 304.824219 157.761719 307.175781 159.320312 308.519531 Z M 174.050781 318.867188 C 174.863281 319.566406 176.085938 319.476562 176.785156 318.667969 C 177.484375 317.855469 177.394531 316.632812 176.582031 315.933594 C 175.773438 315.234375 174.550781 315.324219 173.851562 316.136719 C 173.152344 316.945312 173.242188 318.167969 174.050781 318.867188 Z M 188.71875 329.289062 C 188.824219 329.378906 188.980469 329.367188 189.070312 329.265625 C 189.160156 329.160156 189.148438 329.003906 189.042969 328.914062 C 188.941406 328.824219 188.785156 328.835938 188.695312 328.941406 C 188.605469 329.042969 188.617188 329.199219 188.71875 329.289062 Z M 82.164062 260.828125 C 82.203125 260.863281 82.265625 260.859375 82.300781 260.820312 C 82.339844 260.777344 82.332031 260.714844 82.292969 260.679688 C 82.25 260.644531 82.1875 260.648438 82.152344 260.6875 C 82.117188 260.730469 82.121094 260.792969 82.164062 260.828125 Z M 95.46875 272.832031 C 95.675781 273.011719 95.988281 272.988281 96.167969 272.78125 C 96.347656 272.570312 96.324219 272.257812 96.117188 272.078125 C 95.910156 271.898438 95.597656 271.921875 95.414062 272.132812 C 95.238281 272.339844 95.257812 272.652344 95.46875 272.832031 Z M 108.9375 284.644531 C 109.207031 284.878906 109.613281 284.847656 109.84375 284.578125 C 110.078125 284.308594 110.050781 283.902344 109.78125 283.667969 C 109.507812 283.433594 109.101562 283.464844 108.867188 283.734375 C 108.636719 284.003906 108.664062 284.414062 108.9375 284.644531 Z M 122.53125 296.308594 C 122.78125 296.523438 123.15625 296.496094 123.371094 296.25 C 123.589844 296 123.5625 295.621094 123.3125 295.40625 C 123.0625 295.191406 122.6875 295.21875 122.46875 295.46875 C 122.253906 295.71875 122.285156 296.09375 122.53125 296.308594 Z M 136.289062 307.789062 C 136.414062 307.894531 136.605469 307.878906 136.710938 307.757812 C 136.820312 307.632812 136.804688 307.441406 136.679688 307.335938 C 136.554688 307.226562 136.367188 307.242188 136.261719 307.367188 C 136.152344 307.492188 136.167969 307.679688 136.289062 307.789062 Z M 136.289062 307.789062 " fill-opacity="1" fill-rule="nonzero"/><path fill="#ffffff" d="M 395.226562 199.539062 C 395.246094 199.519531 395.277344 199.515625 395.296875 199.535156 C 395.320312 199.550781 395.320312 199.582031 395.304688 199.605469 C 395.285156 199.625 395.253906 199.625 395.234375 199.609375 C 395.210938 199.589844 395.210938 199.558594 395.226562 199.539062 Z M 356.402344 189.769531 C 356.421875 189.789062 356.453125 189.785156 356.472656 189.765625 C 356.492188 189.742188 356.488281 189.710938 356.46875 189.695312 C 356.445312 189.675781 356.414062 189.679688 356.398438 189.699219 C 356.378906 189.71875 356.382812 189.75 356.402344 189.769531 Z M 369.933594 201.507812 C 369.976562 201.546875 370.039062 201.539062 370.074219 201.5 C 370.109375 201.457031 370.105469 201.394531 370.0625 201.359375 C 370.023438 201.324219 369.960938 201.328125 369.925781 201.371094 C 369.886719 201.410156 369.894531 201.472656 369.933594 201.507812 Z M 383.5 213.210938 C 383.539062 213.246094 383.601562 213.242188 383.640625 213.199219 C 383.675781 213.160156 383.671875 213.097656 383.628906 213.0625 C 383.585938 213.023438 383.523438 213.03125 383.488281 213.070312 C 383.453125 213.113281 383.457031 213.175781 383.5 213.210938 Z M 331.101562 191.671875 C 331.144531 191.707031 331.207031 191.703125 331.242188 191.660156 C 331.277344 191.617188 331.273438 191.554688 331.234375 191.519531 C 331.191406 191.484375 331.128906 191.488281 331.09375 191.53125 C 331.058594 191.570312 331.0625 191.632812 331.101562 191.671875 Z M 344.636719 203.410156 C 344.699219 203.464844 344.792969 203.457031 344.847656 203.394531 C 344.898438 203.332031 344.890625 203.238281 344.832031 203.183594 C 344.769531 203.128906 344.671875 203.136719 344.621094 203.199219 C 344.566406 203.261719 344.574219 203.355469 344.636719 203.410156 Z M 358.199219 215.113281 C 358.261719 215.164062 358.355469 215.160156 358.410156 215.097656 C 358.464844 215.035156 358.457031 214.941406 358.394531 214.886719 C 358.332031 214.832031 358.238281 214.839844 358.183594 214.902344 C 358.128906 214.964844 358.136719 215.058594 358.199219 215.113281 Z M 371.699219 226.890625 C 371.804688 226.976562 371.957031 226.964844 372.046875 226.863281 C 372.136719 226.757812 372.128906 226.601562 372.023438 226.511719 C 371.921875 226.421875 371.761719 226.433594 371.671875 226.539062 C 371.585938 226.640625 371.597656 226.800781 371.699219 226.890625 Z M 385.363281 238.476562 C 385.402344 238.511719 385.464844 238.507812 385.5 238.46875 C 385.539062 238.425781 385.53125 238.363281 385.492188 238.328125 C 385.449219 238.292969 385.386719 238.296875 385.351562 238.335938 C 385.316406 238.378906 385.320312 238.441406 385.363281 238.476562 Z M 319.335938 205.308594 C 319.417969 205.382812 319.546875 205.371094 319.617188 205.289062 C 319.6875 205.207031 319.679688 205.082031 319.597656 205.007812 C 319.511719 204.9375 319.386719 204.945312 319.316406 205.027344 C 319.242188 205.113281 319.253906 205.238281 319.335938 205.308594 Z M 332.867188 217.050781 C 332.972656 217.140625 333.128906 217.125 333.21875 217.023438 C 333.308594 216.917969 333.296875 216.761719 333.191406 216.671875 C 333.089844 216.585938 332.933594 216.59375 332.84375 216.699219 C 332.753906 216.800781 332.765625 216.960938 332.867188 217.050781 Z M 346.402344 228.789062 C 346.523438 228.894531 346.714844 228.882812 346.820312 228.757812 C 346.929688 228.632812 346.914062 228.445312 346.789062 228.335938 C 346.664062 228.230469 346.476562 228.242188 346.371094 228.367188 C 346.261719 228.492188 346.277344 228.683594 346.402344 228.789062 Z M 359.902344 240.566406 C 360.066406 240.710938 360.316406 240.691406 360.460938 240.523438 C 360.601562 240.359375 360.585938 240.109375 360.417969 239.964844 C 360.253906 239.820312 360 239.839844 359.859375 240.003906 C 359.714844 240.171875 359.734375 240.421875 359.902344 240.566406 Z M 373.59375 252.117188 C 373.679688 252.1875 373.804688 252.179688 373.875 252.097656 C 373.945312 252.015625 373.9375 251.886719 373.855469 251.816406 C 373.773438 251.746094 373.644531 251.753906 373.574219 251.835938 C 373.503906 251.921875 373.511719 252.046875 373.59375 252.117188 Z M 294.167969 207.058594 C 294.1875 207.078125 294.21875 207.074219 294.238281 207.054688 C 294.253906 207.03125 294.253906 207 294.230469 206.984375 C 294.210938 206.964844 294.179688 206.96875 294.160156 206.988281 C 294.144531 207.011719 294.144531 207.042969 294.167969 207.058594 Z M 307.503906 219.023438 C 307.671875 219.167969 307.921875 219.148438 308.0625 218.984375 C 308.207031 218.816406 308.191406 218.566406 308.023438 218.421875 C 307.859375 218.28125 307.605469 218.296875 307.460938 218.464844 C 307.320312 218.628906 307.339844 218.882812 307.503906 219.023438 Z M 321.035156 230.765625 C 321.222656 230.925781 321.503906 230.902344 321.667969 230.71875 C 321.828125 230.53125 321.808594 230.25 321.621094 230.085938 C 321.433594 229.925781 321.152344 229.945312 320.988281 230.132812 C 320.828125 230.320312 320.847656 230.601562 321.035156 230.765625 Z M 334.535156 242.542969 C 334.765625 242.738281 335.109375 242.710938 335.304688 242.484375 C 335.503906 242.253906 335.476562 241.910156 335.25 241.714844 C 335.019531 241.515625 334.675781 241.542969 334.480469 241.769531 C 334.28125 242 334.308594 242.34375 334.535156 242.542969 Z M 348.035156 254.320312 C 348.304688 254.550781 348.714844 254.519531 348.945312 254.25 C 349.179688 253.980469 349.148438 253.574219 348.878906 253.339844 C 348.609375 253.105469 348.199219 253.136719 347.96875 253.40625 C 347.734375 253.675781 347.765625 254.085938 348.035156 254.320312 Z M 361.828125 265.757812 C 361.953125 265.863281 362.140625 265.851562 362.25 265.726562 C 362.355469 265.601562 362.34375 265.414062 362.21875 265.304688 C 362.09375 265.199219 361.90625 265.210938 361.796875 265.335938 C 361.6875 265.460938 361.703125 265.648438 361.828125 265.757812 Z M 282.367188 220.738281 C 282.449219 220.808594 282.578125 220.800781 282.648438 220.714844 C 282.71875 220.632812 282.710938 220.507812 282.628906 220.4375 C 282.542969 220.363281 282.417969 220.375 282.347656 220.457031 C 282.273438 220.539062 282.285156 220.664062 282.367188 220.738281 Z M 295.640625 232.777344 C 295.910156 233.011719 296.316406 232.980469 296.550781 232.710938 C 296.78125 232.441406 296.753906 232.03125 296.484375 231.800781 C 296.210938 231.566406 295.804688 231.597656 295.574219 231.867188 C 295.339844 232.136719 295.371094 232.542969 295.640625 232.777344 Z M 309.171875 244.515625 C 309.460938 244.765625 309.902344 244.734375 310.152344 244.445312 C 310.402344 244.152344 310.371094 243.714844 310.082031 243.464844 C 309.789062 243.210938 309.351562 243.246094 309.097656 243.535156 C 308.847656 243.828125 308.878906 244.265625 309.171875 244.515625 Z M 322.671875 256.292969 C 323.003906 256.582031 323.503906 256.542969 323.792969 256.210938 C 324.078125 255.878906 324.042969 255.375 323.710938 255.089844 C 323.378906 254.804688 322.875 254.839844 322.589844 255.171875 C 322.300781 255.503906 322.339844 256.007812 322.671875 256.292969 Z M 336.171875 268.070312 C 336.546875 268.394531 337.109375 268.351562 337.433594 267.976562 C 337.753906 267.605469 337.714844 267.039062 337.339844 266.71875 C 336.964844 266.394531 336.402344 266.433594 336.078125 266.808594 C 335.753906 267.183594 335.796875 267.746094 336.171875 268.070312 Z M 350.0625 279.398438 C 350.226562 279.539062 350.476562 279.519531 350.621094 279.355469 C 350.765625 279.1875 350.746094 278.9375 350.582031 278.796875 C 350.414062 278.652344 350.164062 278.671875 350.019531 278.835938 C 349.875 279.003906 349.894531 279.253906 350.0625 279.398438 Z M 270.375 234.640625 C 270.644531 234.871094 271.050781 234.84375 271.285156 234.574219 C 271.515625 234.300781 271.488281 233.894531 271.21875 233.660156 C 270.945312 233.429688 270.539062 233.457031 270.304688 233.730469 C 270.074219 234 270.105469 234.40625 270.375 234.640625 Z M 283.710938 246.605469 C 284.125 246.964844 284.753906 246.917969 285.113281 246.5 C 285.46875 246.085938 285.425781 245.457031 285.007812 245.101562 C 284.59375 244.742188 283.964844 244.789062 283.605469 245.203125 C 283.25 245.617188 283.296875 246.246094 283.710938 246.605469 Z M 297.242188 258.34375 C 297.679688 258.71875 298.339844 258.671875 298.714844 258.234375 C 299.089844 257.800781 299.042969 257.140625 298.605469 256.765625 C 298.167969 256.386719 297.511719 256.4375 297.132812 256.871094 C 296.757812 257.308594 296.804688 257.96875 297.242188 258.34375 Z M 310.777344 270.085938 C 311.230469 270.476562 311.921875 270.425781 312.316406 269.96875 C 312.710938 269.515625 312.660156 268.824219 312.203125 268.429688 C 311.746094 268.035156 311.058594 268.085938 310.664062 268.542969 C 310.269531 269 310.316406 269.691406 310.777344 270.085938 Z M 324.242188 281.898438 C 324.761719 282.347656 325.546875 282.289062 325.996094 281.769531 C 326.441406 281.25 326.382812 280.464844 325.867188 280.019531 C 325.34375 279.570312 324.5625 279.628906 324.113281 280.148438 C 323.667969 280.667969 323.722656 281.449219 324.242188 281.898438 Z M 338.425781 292.886719 C 338.546875 292.992188 338.738281 292.980469 338.84375 292.855469 C 338.953125 292.730469 338.9375 292.542969 338.8125 292.433594 C 338.6875 292.328125 338.5 292.339844 338.394531 292.464844 C 338.285156 292.589844 338.300781 292.78125 338.425781 292.886719 Z M 245.367188 236.203125 C 245.46875 236.292969 245.628906 236.28125 245.714844 236.175781 C 245.804688 236.070312 245.792969 235.914062 245.691406 235.824219 C 245.585938 235.734375 245.429688 235.746094 245.339844 235.851562 C 245.25 235.957031 245.261719 236.113281 245.367188 236.203125 Z M 258.28125 248.65625 C 258.800781 249.105469 259.585938 249.046875 260.035156 248.527344 C 260.480469 248.007812 260.421875 247.222656 259.90625 246.773438 C 259.386719 246.328125 258.601562 246.386719 258.152344 246.90625 C 257.707031 247.421875 257.761719 248.207031 258.28125 248.65625 Z M 271.78125 260.433594 C 272.34375 260.917969 273.191406 260.855469 273.675781 260.292969 C 274.15625 259.734375 274.097656 258.886719 273.535156 258.402344 C 272.972656 257.917969 272.128906 257.980469 271.644531 258.542969 C 271.160156 259.101562 271.222656 259.949219 271.78125 260.433594 Z M 285.316406 272.171875 C 285.894531 272.671875 286.773438 272.609375 287.277344 272.027344 C 287.777344 271.445312 287.710938 270.566406 287.132812 270.066406 C 286.550781 269.566406 285.671875 269.628906 285.171875 270.210938 C 284.667969 270.792969 284.730469 271.671875 285.316406 272.171875 Z M 298.8125 283.949219 C 299.4375 284.488281 300.378906 284.417969 300.917969 283.796875 C 301.453125 283.171875 301.386719 282.230469 300.761719 281.691406 C 300.136719 281.15625 299.195312 281.226562 298.660156 281.847656 C 298.121094 282.472656 298.191406 283.414062 298.8125 283.949219 Z M 312.378906 295.652344 C 313.003906 296.191406 313.941406 296.121094 314.480469 295.496094 C 315.019531 294.875 314.949219 293.933594 314.324219 293.394531 C 313.703125 292.855469 312.761719 292.925781 312.222656 293.550781 C 311.6875 294.171875 311.753906 295.113281 312.378906 295.652344 Z M 326.851562 306.300781 C 326.894531 306.335938 326.957031 306.332031 326.992188 306.289062 C 327.027344 306.25 327.023438 306.1875 326.980469 306.152344 C 326.941406 306.113281 326.878906 306.121094 326.839844 306.160156 C 326.804688 306.203125 326.8125 306.265625 326.851562 306.300781 Z M 220.164062 237.988281 C 220.226562 238.042969 220.320312 238.035156 220.375 237.972656 C 220.429688 237.910156 220.421875 237.816406 220.359375 237.761719 C 220.296875 237.710938 220.203125 237.714844 220.148438 237.777344 C 220.09375 237.839844 220.101562 237.933594 220.164062 237.988281 Z M 232.886719 250.667969 C 233.488281 251.1875 234.398438 251.121094 234.917969 250.519531 C 235.4375 249.917969 235.371094 249.007812 234.769531 248.488281 C 234.164062 247.96875 233.253906 248.035156 232.734375 248.636719 C 232.214844 249.238281 232.285156 250.148438 232.886719 250.667969 Z M 246.253906 262.597656 C 246.984375 263.222656 248.082031 263.144531 248.707031 262.414062 C 249.335938 261.6875 249.253906 260.589844 248.527344 259.964844 C 247.800781 259.335938 246.703125 259.417969 246.074219 260.144531 C 245.449219 260.871094 245.527344 261.96875 246.253906 262.597656 Z M 259.789062 274.335938 C 260.535156 274.980469 261.664062 274.898438 262.3125 274.152344 C 262.957031 273.402344 262.871094 272.273438 262.125 271.628906 C 261.375 270.984375 260.246094 271.066406 259.601562 271.8125 C 258.957031 272.5625 259.039062 273.691406 259.789062 274.335938 Z M 273.320312 286.078125 C 274.089844 286.738281 275.25 286.652344 275.910156 285.882812 C 276.574219 285.117188 276.492188 283.957031 275.722656 283.292969 C 274.953125 282.628906 273.792969 282.714844 273.128906 283.484375 C 272.464844 284.253906 272.550781 285.414062 273.320312 286.078125 Z M 286.820312 297.851562 C 287.628906 298.550781 288.851562 298.460938 289.550781 297.652344 C 290.25 296.839844 290.160156 295.617188 289.351562 294.917969 C 288.539062 294.222656 287.316406 294.308594 286.617188 295.121094 C 285.917969 295.929688 286.011719 297.15625 286.820312 297.851562 Z M 300.871094 308.992188 C 301.367188 309.421875 302.121094 309.367188 302.554688 308.867188 C 302.984375 308.367188 302.925781 307.613281 302.429688 307.183594 C 301.929688 306.753906 301.179688 306.8125 300.746094 307.308594 C 300.316406 307.808594 300.371094 308.558594 300.871094 308.992188 Z M 58.992188 123.132812 C 59.222656 123.328125 59.566406 123.304688 59.761719 123.074219 C 59.960938 122.847656 59.933594 122.503906 59.707031 122.304688 C 59.476562 122.109375 59.132812 122.132812 58.9375 122.363281 C 58.738281 122.589844 58.765625 122.9375 58.992188 123.132812 Z M 72.753906 134.609375 C 72.855469 134.699219 73.011719 134.6875 73.101562 134.582031 C 73.191406 134.480469 73.179688 134.324219 73.078125 134.234375 C 72.972656 134.144531 72.816406 134.15625 72.726562 134.257812 C 72.636719 134.363281 72.648438 134.519531 72.753906 134.609375 Z M 194.832031 239.925781 C 194.9375 240.015625 195.09375 240.003906 195.183594 239.902344 C 195.273438 239.796875 195.261719 239.640625 195.15625 239.550781 C 195.054688 239.460938 194.898438 239.472656 194.808594 239.578125 C 194.71875 239.679688 194.730469 239.835938 194.832031 239.925781 Z M 207.390625 252.792969 C 208.140625 253.441406 209.269531 253.355469 209.914062 252.609375 C 210.558594 251.859375 210.476562 250.730469 209.730469 250.085938 C 208.980469 249.441406 207.851562 249.523438 207.207031 250.273438 C 206.5625 251.019531 206.644531 252.148438 207.390625 252.792969 Z M 220.664062 264.835938 C 221.597656 265.640625 223.011719 265.539062 223.816406 264.601562 C 224.625 263.667969 224.519531 262.257812 223.585938 261.449219 C 222.648438 260.644531 221.238281 260.746094 220.433594 261.683594 C 219.625 262.617188 219.730469 264.027344 220.664062 264.835938 Z M 234.230469 276.535156 C 235.164062 277.34375 236.574219 277.238281 237.382812 276.304688 C 238.1875 275.371094 238.085938 273.957031 237.148438 273.152344 C 236.214844 272.34375 234.804688 272.449219 233.996094 273.382812 C 233.191406 274.320312 233.292969 275.730469 234.230469 276.535156 Z M 247.792969 288.238281 C 248.730469 289.046875 250.140625 288.941406 250.945312 288.007812 C 251.753906 287.070312 251.648438 285.660156 250.714844 284.855469 C 249.777344 284.046875 248.367188 284.152344 247.5625 285.085938 C 246.753906 286.019531 246.859375 287.433594 247.792969 288.238281 Z M 261.292969 300.015625 C 262.269531 300.859375 263.746094 300.75 264.585938 299.773438 C 265.429688 298.796875 265.320312 297.324219 264.34375 296.480469 C 263.367188 295.636719 261.894531 295.746094 261.050781 296.722656 C 260.207031 297.699219 260.316406 299.171875 261.292969 300.015625 Z M 274.925781 311.644531 C 275.859375 312.449219 277.269531 312.34375 278.074219 311.410156 C 278.882812 310.476562 278.777344 309.0625 277.84375 308.257812 C 276.90625 307.449219 275.496094 307.554688 274.691406 308.488281 C 273.882812 309.425781 273.988281 310.835938 274.925781 311.644531 Z M 289.753906 321.878906 C 289.878906 321.984375 290.066406 321.972656 290.171875 321.847656 C 290.28125 321.722656 290.269531 321.535156 290.144531 321.425781 C 290.015625 321.316406 289.832031 321.332031 289.722656 321.457031 C 289.613281 321.582031 289.628906 321.769531 289.753906 321.878906 Z M 47.519531 136.433594 C 47.601562 136.503906 47.726562 136.496094 47.796875 136.414062 C 47.871094 136.332031 47.859375 136.203125 47.777344 136.132812 C 47.695312 136.0625 47.570312 136.070312 47.496094 136.152344 C 47.425781 136.238281 47.433594 136.363281 47.519531 136.433594 Z M 59.296875 150.203125 C 60.523438 151.261719 62.375 151.125 63.433594 149.898438 C 64.488281 148.675781 64.351562 146.824219 63.128906 145.765625 C 61.902344 144.707031 60.050781 144.84375 58.992188 146.070312 C 57.9375 147.296875 58.070312 149.148438 59.296875 150.203125 Z M 73.707031 160.929688 C 74.390625 161.519531 75.425781 161.445312 76.019531 160.757812 C 76.609375 160.074219 76.535156 159.039062 75.847656 158.445312 C 75.164062 157.855469 74.128906 157.929688 73.535156 158.617188 C 72.945312 159.300781 73.019531 160.335938 73.707031 160.929688 Z M 88.246094 171.503906 C 88.304688 171.554688 88.402344 171.550781 88.453125 171.488281 C 88.507812 171.425781 88.5 171.332031 88.4375 171.277344 C 88.375 171.222656 88.28125 171.230469 88.230469 171.292969 C 88.175781 171.355469 88.183594 171.449219 88.246094 171.503906 Z M 156.035156 230.050781 C 156.117188 230.121094 156.242188 230.113281 156.316406 230.027344 C 156.386719 229.945312 156.378906 229.820312 156.292969 229.75 C 156.210938 229.675781 156.085938 229.6875 156.015625 229.769531 C 155.941406 229.851562 155.953125 229.976562 156.035156 230.050781 Z M 168.851562 242.617188 C 169.414062 243.101562 170.261719 243.039062 170.746094 242.476562 C 171.230469 241.917969 171.167969 241.070312 170.605469 240.585938 C 170.042969 240.101562 169.199219 240.164062 168.714844 240.726562 C 168.230469 241.285156 168.292969 242.132812 168.851562 242.617188 Z M 181.542969 255.335938 C 182.664062 256.300781 184.355469 256.175781 185.324219 255.054688 C 186.292969 253.933594 186.167969 252.238281 185.046875 251.273438 C 183.925781 250.304688 182.230469 250.429688 181.261719 251.550781 C 180.292969 252.671875 180.417969 254.367188 181.542969 255.335938 Z M 195.007812 267.148438 C 196.191406 268.171875 197.980469 268.039062 199.003906 266.855469 C 200.023438 265.671875 199.890625 263.882812 198.707031 262.859375 C 197.523438 261.839844 195.734375 261.972656 194.714844 263.15625 C 193.691406 264.339844 193.824219 266.128906 195.007812 267.148438 Z M 208.605469 278.8125 C 209.769531 279.816406 211.527344 279.6875 212.53125 278.523438 C 213.53125 277.359375 213.402344 275.605469 212.242188 274.601562 C 211.078125 273.597656 209.320312 273.726562 208.316406 274.890625 C 207.3125 276.054688 207.441406 277.808594 208.605469 278.8125 Z M 222.171875 290.515625 C 223.332031 291.519531 225.089844 291.390625 226.09375 290.226562 C 227.097656 289.0625 226.96875 287.304688 225.804688 286.300781 C 224.640625 285.296875 222.886719 285.429688 221.882812 286.589844 C 220.878906 287.753906 221.007812 289.511719 222.171875 290.515625 Z M 235.703125 302.253906 C 236.886719 303.277344 238.675781 303.144531 239.695312 301.960938 C 240.71875 300.777344 240.585938 298.988281 239.402344 297.96875 C 238.21875 296.945312 236.429688 297.078125 235.40625 298.261719 C 234.386719 299.445312 234.519531 301.234375 235.703125 302.253906 Z M 249.269531 313.957031 C 250.449219 314.976562 252.238281 314.847656 253.261719 313.664062 C 254.28125 312.480469 254.148438 310.691406 252.96875 309.667969 C 251.78125 308.648438 249.996094 308.78125 248.972656 309.964844 C 247.953125 311.148438 248.082031 312.933594 249.269531 313.957031 Z M 264 324.304688 C 264.4375 324.679688 265.09375 324.632812 265.472656 324.195312 C 265.847656 323.761719 265.800781 323.101562 265.363281 322.726562 C 264.925781 322.347656 264.265625 322.394531 263.890625 322.832031 C 263.515625 323.269531 263.5625 323.929688 264 324.304688 Z M 49.21875 161.890625 C 49.40625 162.050781 49.6875 162.03125 49.847656 161.84375 C 50.011719 161.65625 49.988281 161.375 49.800781 161.210938 C 49.617188 161.050781 49.332031 161.070312 49.171875 161.257812 C 49.011719 161.445312 49.03125 161.726562 49.21875 161.890625 Z M 60.511719 176.222656 C 62.152344 177.640625 64.628906 177.457031 66.046875 175.816406 C 67.460938 174.175781 67.28125 171.695312 65.636719 170.28125 C 63.996094 168.863281 61.519531 169.046875 60.101562 170.6875 C 58.6875 172.328125 58.871094 174.808594 60.511719 176.222656 Z M 73.6875 188.378906 C 75.578125 190.007812 78.429688 189.796875 80.0625 187.90625 C 81.691406 186.015625 81.484375 183.164062 79.59375 181.53125 C 77.703125 179.902344 74.847656 180.109375 73.214844 182 C 71.585938 183.890625 71.796875 186.746094 73.6875 188.378906 Z M 87.933594 199.289062 C 89.386719 200.542969 91.582031 200.382812 92.835938 198.925781 C 94.089844 197.472656 93.929688 195.277344 92.476562 194.023438 C 91.019531 192.769531 88.824219 192.929688 87.570312 194.382812 C 86.316406 195.839844 86.476562 198.035156 87.933594 199.289062 Z M 101.984375 210.425781 C 103.125 211.414062 104.851562 211.285156 105.835938 210.144531 C 106.824219 209 106.695312 207.273438 105.554688 206.289062 C 104.410156 205.304688 102.6875 205.429688 101.699219 206.574219 C 100.714844 207.714844 100.839844 209.441406 101.984375 210.425781 Z M 115.644531 222.015625 C 116.726562 222.949219 118.355469 222.828125 119.289062 221.746094 C 120.222656 220.667969 120.101562 219.035156 119.019531 218.105469 C 117.941406 217.171875 116.308594 217.292969 115.378906 218.371094 C 114.445312 219.453125 114.566406 221.085938 115.644531 222.015625 Z M 128.917969 234.054688 C 130.1875 235.148438 132.097656 235.007812 133.191406 233.742188 C 134.285156 232.472656 134.144531 230.5625 132.878906 229.46875 C 131.609375 228.375 129.695312 228.515625 128.601562 229.78125 C 127.511719 231.050781 127.652344 232.964844 128.917969 234.054688 Z M 142.09375 246.210938 C 143.609375 247.519531 145.898438 247.347656 147.207031 245.832031 C 148.515625 244.316406 148.347656 242.027344 146.832031 240.71875 C 145.316406 239.410156 143.023438 239.578125 141.714844 241.09375 C 140.410156 242.613281 140.578125 244.902344 142.09375 246.210938 Z M 155.59375 257.988281 C 157.152344 259.332031 159.503906 259.15625 160.847656 257.597656 C 162.191406 256.042969 162.019531 253.6875 160.460938 252.34375 C 158.902344 251 156.550781 251.175781 155.207031 252.730469 C 153.863281 254.289062 154.035156 256.644531 155.59375 257.988281 Z M 169.253906 269.574219 C 170.75 270.867188 173.007812 270.699219 174.300781 269.203125 C 175.589844 267.707031 175.421875 265.449219 173.929688 264.160156 C 172.433594 262.871094 170.175781 263.035156 168.882812 264.53125 C 167.59375 266.027344 167.757812 268.285156 169.253906 269.574219 Z M 182.886719 281.203125 C 184.339844 282.457031 186.535156 282.296875 187.789062 280.839844 C 189.042969 279.386719 188.882812 277.191406 187.429688 275.9375 C 185.972656 274.683594 183.777344 274.84375 182.523438 276.296875 C 181.269531 277.753906 181.429688 279.949219 182.886719 281.203125 Z M 196.480469 292.867188 C 197.914062 294.101562 200.078125 293.945312 201.316406 292.511719 C 202.554688 291.078125 202.394531 288.914062 200.960938 287.675781 C 199.527344 286.441406 197.363281 286.597656 196.125 288.03125 C 194.890625 289.464844 195.046875 291.628906 196.480469 292.867188 Z M 210.046875 304.570312 C 211.480469 305.804688 213.644531 305.644531 214.882812 304.210938 C 216.117188 302.777344 215.957031 300.613281 214.523438 299.378906 C 213.089844 298.140625 210.925781 298.300781 209.691406 299.734375 C 208.453125 301.167969 208.613281 303.332031 210.046875 304.570312 Z M 223.644531 316.234375 C 225.054688 317.449219 227.1875 317.292969 228.40625 315.882812 C 229.625 314.46875 229.46875 312.335938 228.058594 311.117188 C 226.644531 309.898438 224.511719 310.054688 223.292969 311.46875 C 222.074219 312.882812 222.230469 315.015625 223.644531 316.234375 Z M 238.410156 326.542969 C 239.050781 327.097656 240.027344 327.027344 240.582031 326.382812 C 241.136719 325.738281 241.0625 324.765625 240.421875 324.210938 C 239.777344 323.65625 238.804688 323.726562 238.25 324.371094 C 237.695312 325.015625 237.765625 325.988281 238.410156 326.542969 Z M 51.210938 187.003906 C 51.316406 187.09375 51.472656 187.082031 51.5625 186.980469 C 51.652344 186.875 51.640625 186.71875 51.535156 186.628906 C 51.429688 186.539062 51.273438 186.550781 51.183594 186.65625 C 51.09375 186.757812 51.105469 186.914062 51.210938 187.003906 Z M 62.992188 200.777344 C 64.238281 201.851562 66.117188 201.710938 67.195312 200.464844 C 68.269531 199.21875 68.132812 197.335938 66.882812 196.261719 C 65.636719 195.1875 63.757812 195.324219 62.679688 196.570312 C 61.605469 197.816406 61.746094 199.699219 62.992188 200.777344 Z M 75.289062 213.945312 C 77.347656 215.71875 80.453125 215.488281 82.226562 213.433594 C 84 211.375 83.773438 208.269531 81.714844 206.496094 C 79.65625 204.722656 76.554688 204.953125 74.777344 207.007812 C 73.003906 209.066406 73.234375 212.171875 75.289062 213.945312 Z M 88.757812 225.757812 C 90.875 227.585938 94.074219 227.351562 95.902344 225.230469 C 97.730469 223.113281 97.496094 219.914062 95.375 218.085938 C 93.257812 216.257812 90.058594 216.492188 88.230469 218.613281 C 86.402344 220.730469 86.636719 223.929688 88.757812 225.757812 Z M 102.355469 237.421875 C 104.453125 239.234375 107.621094 239 109.429688 236.902344 C 111.242188 234.804688 111.007812 231.636719 108.910156 229.824219 C 106.8125 228.015625 103.644531 228.25 101.832031 230.347656 C 100.023438 232.445312 100.257812 235.613281 102.355469 237.421875 Z M 116.046875 248.976562 C 118.0625 250.714844 121.105469 250.488281 122.84375 248.472656 C 124.582031 246.457031 124.359375 243.417969 122.34375 241.679688 C 120.328125 239.941406 117.285156 240.164062 115.546875 242.179688 C 113.808594 244.195312 114.035156 247.238281 116.046875 248.976562 Z M 129.742188 260.527344 C 131.675781 262.191406 134.59375 261.976562 136.257812 260.046875 C 137.925781 258.113281 137.710938 255.195312 135.777344 253.53125 C 133.847656 251.863281 130.929688 252.078125 129.261719 254.011719 C 127.597656 255.941406 127.8125 258.859375 129.742188 260.527344 Z M 143.4375 272.078125 C 145.285156 273.671875 148.078125 273.464844 149.671875 271.617188 C 151.269531 269.769531 151.0625 266.976562 149.214844 265.382812 C 147.363281 263.789062 144.574219 263.992188 142.976562 265.84375 C 141.382812 267.691406 141.589844 270.484375 143.4375 272.078125 Z M 157.097656 283.667969 C 158.886719 285.207031 161.582031 285.007812 163.125 283.222656 C 164.667969 281.4375 164.46875 278.738281 162.679688 277.195312 C 160.894531 275.65625 158.195312 275.855469 156.65625 277.640625 C 155.113281 279.429688 155.3125 282.125 157.097656 283.667969 Z M 170.730469 295.292969 C 172.472656 296.800781 175.109375 296.605469 176.613281 294.859375 C 178.121094 293.113281 177.925781 290.480469 176.179688 288.972656 C 174.433594 287.46875 171.800781 287.664062 170.296875 289.40625 C 168.789062 291.152344 168.984375 293.789062 170.730469 295.292969 Z M 184.324219 306.957031 C 186.050781 308.445312 188.652344 308.253906 190.140625 306.527344 C 191.628906 304.804688 191.4375 302.203125 189.710938 300.714844 C 187.988281 299.226562 185.386719 299.417969 183.898438 301.144531 C 182.410156 302.867188 182.601562 305.46875 184.324219 306.957031 Z M 198.246094 318.246094 C 199.742188 319.535156 202 319.371094 203.292969 317.875 C 204.582031 316.378906 204.414062 314.121094 202.921875 312.828125 C 201.425781 311.539062 199.167969 311.707031 197.875 313.203125 C 196.585938 314.695312 196.75 316.957031 198.246094 318.246094 Z M 213.371094 328.144531 C 213.867188 328.570312 214.621094 328.515625 215.050781 328.019531 C 215.480469 327.519531 215.425781 326.765625 214.929688 326.335938 C 214.429688 325.90625 213.675781 325.960938 213.246094 326.460938 C 212.816406 326.957031 212.871094 327.710938 213.371094 328.144531 Z M 66.183594 224.5 C 66.578125 224.839844 67.175781 224.796875 67.515625 224.402344 C 67.855469 224.007812 67.8125 223.410156 67.417969 223.070312 C 67.023438 222.730469 66.425781 222.773438 66.085938 223.167969 C 65.746094 223.5625 65.789062 224.160156 66.183594 224.5 Z M 78.449219 237.707031 C 79.675781 238.761719 81.527344 238.628906 82.585938 237.402344 C 83.640625 236.175781 83.503906 234.324219 82.28125 233.269531 C 81.054688 232.210938 79.203125 232.347656 78.144531 233.574219 C 77.089844 234.796875 77.226562 236.648438 78.449219 237.707031 Z M 91.042969 250.535156 C 92.890625 252.132812 95.683594 251.925781 97.277344 250.078125 C 98.871094 248.226562 98.667969 245.4375 96.816406 243.839844 C 94.96875 242.246094 92.175781 242.453125 90.582031 244.300781 C 88.988281 246.148438 89.191406 248.941406 91.042969 250.535156 Z M 104.28125 262.613281 C 106.339844 264.390625 109.445312 264.160156 111.21875 262.101562 C 112.992188 260.046875 112.761719 256.941406 110.707031 255.167969 C 108.648438 253.394531 105.542969 253.621094 103.769531 255.679688 C 101.996094 257.734375 102.226562 260.839844 104.28125 262.613281 Z M 117.75 274.429688 C 119.867188 276.257812 123.066406 276.023438 124.894531 273.902344 C 126.722656 271.785156 126.488281 268.585938 124.367188 266.757812 C 122.25 264.929688 119.050781 265.164062 117.222656 267.28125 C 115.394531 269.402344 115.628906 272.601562 117.75 274.429688 Z M 131.347656 286.09375 C 133.445312 287.902344 136.613281 287.671875 138.421875 285.570312 C 140.234375 283.472656 140 280.304688 137.902344 278.496094 C 135.800781 276.6875 132.632812 276.917969 130.824219 279.015625 C 129.015625 281.117188 129.246094 284.285156 131.347656 286.09375 Z M 145.136719 297.53125 C 147.089844 299.21875 150.039062 299 151.722656 297.046875 C 153.410156 295.09375 153.191406 292.144531 151.238281 290.460938 C 149.285156 288.777344 146.335938 288.992188 144.652344 290.945312 C 142.96875 292.898438 143.183594 295.847656 145.136719 297.53125 Z M 159.320312 308.519531 C 160.878906 309.863281 163.230469 309.691406 164.574219 308.132812 C 165.917969 306.574219 165.746094 304.222656 164.1875 302.878906 C 162.628906 301.535156 160.277344 301.707031 158.929688 303.265625 C 157.585938 304.824219 157.761719 307.175781 159.320312 308.519531 Z M 174.050781 318.867188 C 174.863281 319.566406 176.085938 319.476562 176.785156 318.667969 C 177.484375 317.855469 177.394531 316.632812 176.582031 315.933594 C 175.773438 315.234375 174.550781 315.324219 173.851562 316.136719 C 173.152344 316.945312 173.242188 318.167969 174.050781 318.867188 Z M 188.71875 329.289062 C 188.824219 329.378906 188.980469 329.367188 189.070312 329.265625 C 189.160156 329.160156 189.148438 329.003906 189.042969 328.914062 C 188.941406 328.824219 188.785156 328.835938 188.695312 328.941406 C 188.605469 329.042969 188.617188 329.199219 188.71875 329.289062 Z M 82.164062 260.828125 C 82.203125 260.863281 82.265625 260.859375 82.300781 260.820312 C 82.339844 260.777344 82.332031 260.714844 82.292969 260.679688 C 82.25 260.644531 82.1875 260.648438 82.152344 260.6875 C 82.117188 260.730469 82.121094 260.792969 82.164062 260.828125 Z M 95.46875 272.832031 C 95.675781 273.011719 95.988281 272.988281 96.167969 272.78125 C 96.347656 272.570312 96.324219 272.257812 96.117188 272.078125 C 95.910156 271.898438 95.597656 271.921875 95.414062 272.132812 C 95.238281 272.339844 95.257812 272.652344 95.46875 272.832031 Z M 108.9375 284.644531 C 109.207031 284.878906 109.613281 284.847656 109.84375 284.578125 C 110.078125 284.308594 110.050781 283.902344 109.78125 283.667969 C 109.507812 283.433594 109.101562 283.464844 108.867188 283.734375 C 108.636719 284.003906 108.664062 284.414062 108.9375 284.644531 Z M 122.53125 296.308594 C 122.78125 296.523438 123.15625 296.496094 123.371094 296.25 C 123.589844 296 123.5625 295.621094 123.3125 295.40625 C 123.0625 295.191406 122.6875 295.21875 122.46875 295.46875 C 122.253906 295.71875 122.285156 296.09375 122.53125 296.308594 Z M 136.289062 307.789062 C 136.414062 307.894531 136.605469 307.878906 136.710938 307.757812 C 136.820312 307.632812 136.804688 307.441406 136.679688 307.335938 C 136.554688 307.226562 136.367188 307.242188 136.261719 307.367188 C 136.152344 307.492188 136.167969 307.679688 136.289062 307.789062 Z M 136.289062 307.789062 " fill-opacity="1" fill-rule="nonzero"/></g></g></g></g></g></svg>